<svg version="1.1" id="Layer_1" xmlns="http://www.w3.org/2000/svg" xmlns:xlink="http://www.w3.org/1999/xlink" x="0px" y="0px"
	 width="100%" viewBox="0 0 774 230" enable-background="new 0 0 774 230" xml:space="preserve">
<path fill="#FDFEFE" opacity="1.000000" stroke="none" 
	d="
M604.000000,231.000000 
	C402.666687,231.000000 201.833374,231.000000 1.000054,231.000000 
	C1.000036,154.333374 1.000036,77.666733 1.000018,1.000074 
	C258.999939,1.000050 516.999878,1.000050 774.999878,1.000025 
	C774.999878,77.666595 774.999878,154.333191 774.999939,230.999893 
	C718.166687,231.000000 661.333313,231.000000 604.000000,231.000000 
M203.109070,41.264439 
	C203.190552,41.314884 203.272034,41.365326 203.353516,41.415771 
	C203.232773,41.279396 203.112045,41.143021 203.165710,40.448208 
	C203.281693,40.291443 203.397690,40.134682 203.522263,39.343098 
	C204.334457,39.378460 205.146652,39.413822 206.130432,40.053970 
	C206.743515,41.310043 207.356583,42.566116 207.295868,44.070839 
	C205.737442,44.682217 204.179031,45.293598 202.011749,46.091087 
	C200.263443,51.326694 205.544525,49.277779 207.303116,51.779018 
	C207.207367,52.519939 207.111618,53.260860 206.515228,54.027721 
	C206.238235,54.168816 205.961243,54.309906 205.684265,54.451004 
	C206.096710,54.636135 206.509140,54.821266 207.085983,55.581593 
	C207.383926,56.077866 207.681870,56.574139 208.170395,57.463173 
	C208.343445,57.708481 208.569427,57.886662 208.866196,58.874119 
	C209.166382,60.447670 209.466568,62.021217 209.875732,64.166084 
	C207.076767,64.392487 204.020111,65.264275 201.270569,64.683060 
	C198.624283,64.123672 196.295609,62.061687 193.797546,60.642948 
	C193.196579,62.278988 193.007126,64.462639 192.193817,64.726990 
	C188.166473,66.035988 184.015884,67.357803 179.830215,67.692322 
	C174.097122,68.150490 168.103882,66.805176 162.575439,67.945564 
	C157.511536,68.990128 151.765732,62.294777 147.465683,69.385422 
	C147.341751,69.589783 146.506790,69.267342 146.050034,69.379898 
	C139.661011,70.954262 133.558792,67.453659 126.858376,68.777718 
	C122.724861,69.594536 118.946663,69.604362 115.428345,73.008339 
	C114.472618,72.319267 113.516891,71.630196 112.347412,70.787003 
	C110.886681,75.120003 108.308311,71.206474 105.892433,70.726562 
	C105.807892,70.676628 105.723343,70.626701 105.638802,70.576767 
	C105.760498,70.716835 105.882195,70.856903 105.902550,71.690041 
	C104.748245,72.762993 103.593941,73.835953 102.140701,75.186775 
	C103.183075,75.622849 104.017113,75.971771 104.483910,76.981056 
	C100.335571,78.328156 96.230202,79.834976 92.023911,80.966682 
	C89.180305,81.731758 85.457062,81.029495 83.419724,82.629395 
	C78.569679,86.438080 73.136238,86.745384 67.548729,87.202209 
	C63.535366,87.530350 59.569599,87.998695 56.708824,92.103325 
	C55.866047,92.587715 55.023273,93.072105 54.180496,93.556488 
	C54.872353,94.063843 55.564205,94.571190 56.696907,95.513580 
	C56.784492,95.700539 56.872078,95.887489 56.691956,96.618179 
	C56.322456,97.266167 55.952961,97.914162 55.988968,97.851013 
	C58.168362,98.938309 60.073124,99.888588 61.311817,101.185600 
	C59.504818,102.086021 58.830498,102.862488 59.648201,105.363815 
	C60.903191,109.202827 58.454933,113.828163 61.724571,117.486160 
	C61.743393,117.507210 61.303677,117.938118 60.671272,118.515999 
	C59.738941,119.078957 58.806610,119.641922 57.883656,120.199219 
	C58.349159,121.340233 58.793980,122.430550 58.837231,123.940582 
	C57.973530,124.332092 57.109833,124.723595 55.532036,125.027840 
	C54.311207,125.450691 53.090374,125.873543 51.407364,127.105797 
	C52.315411,128.770065 53.223457,130.434341 54.131500,132.098602 
	C56.053555,130.963470 57.975609,129.828354 59.899544,128.692123 
	C64.421371,135.770538 64.421371,135.770538 69.311790,137.236053 
	C68.309219,138.507538 67.092484,139.657150 65.691925,139.961884 
	C61.503006,140.873276 57.242134,141.453964 52.170742,142.082840 
	C48.799923,142.632385 45.364044,142.946899 42.091843,143.852722 
	C40.865723,144.192139 40.020428,145.907272 38.983070,147.761337 
	C38.983070,148.868591 38.983070,149.975830 38.983070,151.231064 
	C42.199135,151.039856 45.213188,151.335434 45.800880,146.982071 
	C50.745438,146.163879 49.783665,150.864563 52.081707,152.960571 
	C49.702900,154.328659 47.822048,155.410355 45.941193,156.492065 
	C45.962414,156.989929 45.983639,157.487793 46.004860,157.985657 
	C49.316486,158.700562 52.628117,159.415466 55.936432,160.546432 
	C55.936432,160.546432 55.876247,160.958145 55.288399,161.259186 
	C52.444912,164.363785 49.601421,167.468384 46.757935,170.572968 
	C47.067432,171.031250 47.376934,171.489517 47.686432,171.947800 
	C49.752224,171.853638 51.818016,171.759476 54.190052,172.225235 
	C54.736938,171.744507 55.283825,171.263794 55.889153,170.911682 
	C55.889153,170.911682 55.773056,170.831192 56.528759,170.928757 
	C58.359150,169.347092 60.189541,167.765411 62.877174,166.034225 
	C64.904152,165.951355 66.931122,165.868484 69.306526,166.393112 
	C70.605278,167.380554 71.904030,168.367981 73.372086,169.836197 
	C73.363731,170.173813 73.355377,170.511429 72.735092,171.209412 
	C72.478058,172.335190 72.221016,173.460983 71.248909,174.808670 
	C70.503929,174.800247 69.758949,174.791840 68.905548,174.187775 
	C67.852234,174.207611 66.798920,174.227448 65.745605,174.247284 
	C65.931496,174.836334 66.117386,175.425385 66.695183,176.554184 
	C67.148338,177.315399 67.601494,178.076614 67.866867,179.364273 
	C67.859116,179.773071 67.851364,180.181854 67.843613,180.590652 
	C68.271591,180.282471 68.699570,179.974274 69.871941,179.933105 
	C72.246445,180.287125 74.620956,180.641129 77.011810,181.762253 
	C77.403770,182.964050 77.795731,184.165863 78.290550,185.790375 
	C78.319672,186.086136 78.274925,186.370270 78.028664,187.390701 
	C77.329201,188.625946 76.442604,189.802780 76.029160,191.127289 
	C75.879272,191.607452 76.860672,192.440735 77.154785,193.870316 
	C77.154785,197.899689 77.154785,201.929077 77.154785,205.977081 
	C85.119972,206.463196 92.364365,206.905334 99.608749,207.347473 
	C99.884918,207.704971 100.161087,208.062454 100.437256,208.419952 
	C97.762207,210.852707 95.237770,213.485718 92.360428,215.649460 
	C90.361320,217.152786 85.636635,215.983200 86.490227,220.082031 
	C87.383156,224.369766 91.487686,222.708328 94.497246,222.627121 
	C94.827614,222.618210 95.154816,222.523392 95.485283,222.483170 
	C105.176453,221.303619 114.869843,220.141800 124.556076,218.922989 
	C125.507339,218.803284 126.758957,218.620941 127.287651,217.983612 
	C131.197556,213.270279 136.686295,213.757462 141.933777,213.067780 
	C145.459061,212.604431 148.838226,211.117798 152.351440,210.450287 
	C156.151276,209.728287 160.549591,208.008331 163.784225,209.191452 
	C176.467865,213.830719 188.372253,206.083572 200.719315,207.774094 
	C209.740707,202.375549 219.654068,204.734879 229.412964,204.807358 
	C228.042480,205.382782 226.671982,205.958221 225.301498,206.533661 
	C225.295578,207.032761 225.289658,207.531876 225.283737,208.030975 
	C227.159958,208.177673 229.033936,208.386627 230.912994,208.453827 
	C232.843155,208.522858 235.304871,207.688248 236.612457,208.588120 
	C240.528870,211.283310 242.648117,209.099182 245.287292,206.379745 
	C243.311462,205.618011 241.655075,204.979431 239.998703,204.340851 
	C245.733765,202.874512 251.383255,201.766876 256.851349,202.352615 
	C263.337250,203.047394 269.363373,202.924988 275.371765,200.201843 
	C276.757080,199.574005 279.835785,199.687973 280.297394,200.502319 
	C283.309753,205.816757 288.285065,204.942184 292.995178,205.831833 
	C292.989410,206.495819 292.983643,207.159790 292.250183,208.228409 
	C293.040894,208.839447 293.770599,209.864365 294.632660,209.991516 
	C298.869080,210.616394 303.288605,210.459076 307.373352,211.570618 
	C322.440491,215.670670 337.127319,212.812759 351.957184,210.154770 
	C359.112061,208.872391 366.470581,208.632660 373.754242,208.259949 
	C374.887207,208.201981 376.113251,209.963058 377.943207,211.386047 
	C384.331848,209.848999 392.039001,207.994736 400.034882,206.070999 
	C402.618011,210.338226 408.614197,211.245941 412.029297,206.642151 
	C415.518311,201.938751 419.411041,201.917343 424.307465,203.735077 
	C426.319580,204.482071 429.033325,204.822830 430.934540,204.082047 
	C435.150055,202.439545 438.829102,201.388794 441.759399,206.711792 
	C444.445648,201.298660 447.563416,201.794876 450.995209,205.112183 
	C451.564392,205.662384 452.359894,205.978455 453.353912,206.877960 
	C454.267975,206.676086 455.182068,206.474213 456.157959,206.087708 
	C456.157959,206.087708 456.348267,206.128891 457.016357,206.079788 
	C457.909241,206.060211 458.802155,206.040634 459.628174,206.742691 
	C460.078827,207.512527 460.529480,208.282364 460.947357,209.664932 
	C461.695648,210.564972 462.285126,211.905441 463.234497,212.247757 
	C464.297394,212.631027 465.686249,212.110199 466.607391,212.655777 
	C467.735565,213.451645 468.863770,214.247513 470.083679,215.735992 
	C470.858276,216.448990 471.632874,217.161987 472.407440,217.874969 
	C472.951080,217.039413 473.494690,216.203857 474.815948,215.208313 
	C475.872559,215.183502 476.929169,215.158691 478.147858,215.822510 
	C479.693481,215.893738 481.249329,216.062302 482.770538,215.901901 
	C482.943054,215.883713 482.920441,214.015106 482.418854,212.996094 
	C481.883270,212.819351 481.347656,212.642624 480.873230,211.693146 
	C480.588409,210.186142 480.303589,208.679123 480.626587,206.857925 
	C482.086487,206.251236 483.546417,205.644547 485.092255,205.667877 
	C486.125366,205.684479 487.158447,205.701096 488.072784,205.961990 
	C488.072784,205.961990 488.221130,205.734390 488.094574,206.474457 
	C487.472137,207.886292 486.849670,209.298111 486.206543,210.756866 
	C487.484802,211.775406 488.960175,212.951004 491.334167,214.842606 
	C492.706879,211.087143 493.843475,207.977661 495.133087,204.687149 
	C495.133087,204.687149 495.367706,204.720840 495.983704,204.778336 
	C496.320587,204.562119 496.657501,204.345901 497.880676,203.913971 
	C509.757172,202.561600 521.107910,204.791565 532.628296,208.998520 
	C529.245117,211.013214 526.163940,212.848068 523.082764,214.682907 
	C523.109680,215.139297 523.136658,215.595703 523.163635,216.052094 
	C533.099548,216.382111 543.034851,216.735413 552.972412,217.004181 
	C553.909851,217.029526 555.534485,216.742676 555.701599,216.229843 
	C557.214905,211.585098 560.966370,213.275635 564.021973,213.122986 
	C567.009766,212.973755 570.005554,212.982056 573.909790,213.041168 
	C575.737427,212.979004 577.571960,212.786301 579.391235,212.882172 
	C583.047424,213.074875 586.401001,212.688705 588.795776,209.289413 
	C588.795776,209.289413 588.986938,209.100586 589.923462,209.187347 
	C596.948730,208.790771 603.973938,208.394196 611.796082,208.117554 
	C612.862488,208.046906 613.928955,207.976242 615.836853,208.053848 
	C619.458069,208.537704 623.094360,208.930054 626.697388,209.524185 
	C634.507263,210.812073 641.938904,209.068268 649.477966,206.566681 
	C647.649353,205.853378 645.820740,205.140091 643.992065,204.426788 
	C644.024597,203.945633 644.057190,203.464462 644.089722,202.983307 
	C655.390869,202.316788 666.692078,201.650269 678.528564,201.586121 
	C683.742249,201.330902 688.967590,200.748978 694.165527,200.934479 
	C697.673523,201.059677 701.134949,202.312119 704.010010,199.182144 
	C704.245544,198.925735 705.258423,198.905579 705.419373,199.129044 
	C708.393311,203.258591 712.553162,201.018173 717.231384,201.483749 
	C714.335510,198.911530 712.116638,196.940643 709.959473,194.229233 
	C709.001587,193.503067 708.043701,192.776901 706.564758,191.625977 
	C706.981140,188.020599 706.657837,184.810699 702.646606,183.400208 
	C702.645142,185.898224 705.078247,188.701035 700.667114,189.365417 
	C700.667114,189.365417 700.580078,189.367935 700.766785,188.632812 
	C700.207825,187.669235 699.755615,186.617264 699.055054,185.770981 
	C698.526733,185.132889 697.680237,184.758224 696.975403,184.266296 
	C696.645752,185.128632 696.316162,185.990967 695.274414,187.043213 
	C694.821350,187.231323 694.368286,187.419434 693.916565,186.809219 
	C692.885498,185.761581 691.854431,184.713943 690.960266,183.067993 
	C690.636353,182.388428 690.312439,181.708862 690.128174,180.322952 
	C694.219727,180.052811 698.311340,179.782654 702.402893,179.512497 
	C702.634583,179.024872 702.866211,178.537247 703.097839,178.049622 
	C701.367126,175.962997 699.636414,173.876358 698.546936,171.229919 
	C704.423950,169.396072 711.203064,172.744263 716.672607,167.537170 
	C714.442993,167.306793 712.213379,167.076416 709.457458,166.359833 
	C707.643433,166.526611 705.829468,166.693405 703.086365,167.003113 
	C697.059631,166.978195 691.032959,166.953278 684.870728,166.251801 
	C682.920044,166.435196 680.969421,166.618576 678.221252,166.922699 
	C677.158203,166.807480 676.095215,166.692261 674.878174,165.990540 
	C673.915527,166.004242 672.952942,166.017944 671.234253,166.126221 
	C670.486267,166.011322 669.738281,165.896423 668.713684,165.398865 
	C668.463989,165.171524 668.171448,165.077698 667.950989,165.051910 
	C667.950989,165.051910 667.878296,165.162415 667.917297,164.513931 
	C668.282776,162.740417 668.648315,160.966904 669.566711,159.011276 
	C670.008728,158.658279 670.450745,158.305283 671.611084,157.899567 
	C671.934692,157.144348 672.258301,156.389145 672.867432,155.651230 
	C672.867432,155.651230 672.589478,155.583679 673.354675,155.820892 
	C674.895752,154.155899 676.436890,152.490891 678.541138,150.451309 
	C678.984131,150.399292 679.427063,150.347290 680.130676,151.009949 
	C681.505920,152.191650 682.881104,153.373352 684.562561,154.818176 
	C685.096619,153.442581 685.552185,152.269119 686.661865,150.929352 
	C687.106567,150.960571 687.551208,150.991806 688.003845,151.693298 
	C689.715210,152.232224 692.573914,153.643127 692.940857,153.160263 
	C694.597473,150.980667 699.190918,150.980621 698.839905,146.597473 
	C701.368408,145.987305 703.896912,145.377136 707.273682,144.920883 
	C708.387451,145.471146 709.487488,146.439301 710.618103,146.476456 
	C712.441895,146.536407 714.308716,146.063644 716.085022,145.560440 
	C716.257080,145.511688 715.921631,143.671097 716.220581,142.218170 
	C716.849060,141.480209 717.477539,140.742264 718.789612,140.013550 
	C720.370728,140.013550 721.951843,140.013550 723.532898,140.013550 
	C723.558960,139.629471 723.584961,139.245392 723.610962,138.861313 
	C720.207825,137.199753 716.804688,135.538193 713.266724,133.810852 
	C710.075623,137.327454 710.075623,137.327454 707.194946,134.385696 
	C706.134033,133.875626 705.073120,133.365540 704.102051,132.142960 
	C707.520325,123.117485 707.698547,123.205399 717.170715,122.902626 
	C721.446289,122.765961 725.678955,121.534798 729.953186,120.966446 
	C731.399414,120.774132 732.913635,121.093102 734.605713,121.190437 
	C734.605713,119.779259 734.605713,118.257164 734.605713,115.842575 
	C731.097107,116.934349 728.044434,117.884262 724.080872,118.967346 
	C713.860229,118.229103 703.639587,117.490852 693.418945,116.752609 
	C693.393677,116.414597 693.368408,116.076584 693.343140,115.738579 
	C695.682068,115.096542 698.021057,114.454506 700.359985,113.812462 
	C700.233032,113.338448 700.106079,112.864426 699.979065,112.390404 
	C698.082458,111.915092 696.185852,111.439789 693.425964,110.748138 
	C697.801270,108.235001 704.369202,113.205597 704.646729,104.977310 
	C708.717590,104.769363 712.637512,103.831589 716.238098,104.532997 
	C724.708618,106.183090 731.405640,103.195160 738.619873,97.592903 
	C735.283142,96.207504 732.185364,93.636688 730.057922,94.279152 
	C723.703857,96.198021 718.367004,92.835335 712.567200,92.231987 
	C709.714050,91.935188 705.974121,91.696396 706.019287,87.664337 
	C706.043152,85.533699 707.714417,83.421524 708.920654,80.663857 
	C704.230103,80.663857 699.137268,80.663857 694.020752,80.002213 
	C693.966614,79.564232 693.912415,79.126259 694.069885,78.096504 
	C694.052002,77.706688 694.034180,77.316872 694.037476,76.117218 
	C696.884460,75.096962 699.731445,74.076698 702.476868,73.092850 
	C702.416077,72.846893 702.170410,71.852005 701.754761,70.114471 
	C700.256409,69.678787 698.761047,68.879601 697.259155,68.866982 
	C688.166382,68.790543 679.072083,68.893761 669.140625,68.879105 
	C665.080322,69.347458 661.910034,68.839981 661.836853,63.546516 
	C661.822998,62.543400 659.927490,61.566288 658.757019,60.439312 
	C657.931274,63.088165 657.348694,64.956978 657.083679,65.807114 
	C652.906494,63.668835 649.585754,61.926624 646.226318,60.262718 
	C643.540833,58.932632 641.475281,59.654064 641.245911,62.724667 
	C641.052429,65.315025 639.812866,65.228073 637.987610,64.083633 
	C636.499390,63.131393 635.011169,62.179153 633.013367,60.886585 
	C631.693420,60.932713 630.373413,60.978840 628.334229,61.143013 
	C627.481750,62.409092 626.629333,63.675171 625.460571,65.411034 
	C621.838257,63.573631 618.365234,61.811993 614.046082,60.051933 
	C612.355774,60.083458 610.665466,60.114986 608.981018,59.317474 
	C608.782654,57.252930 608.584290,55.188385 608.568420,52.388378 
	C608.049744,51.891033 607.531006,51.393692 606.915955,50.327496 
	C606.597778,50.024220 606.279602,49.720940 605.961365,49.417679 
	C605.636047,49.905285 605.310791,50.392895 604.459778,51.033756 
	C604.098938,51.076233 603.738098,51.118706 602.419556,51.056431 
	C599.581116,51.042324 596.742737,51.028214 593.258179,50.874626 
	C591.799927,49.597656 590.341675,48.320686 589.382874,46.695648 
	C588.634338,46.111683 587.885864,45.527714 586.435486,44.891869 
	C585.279541,45.923546 584.123657,46.955219 582.239929,47.972141 
	C581.152039,48.586185 580.064087,49.200230 578.604187,50.048672 
	C578.604187,50.048672 578.165588,50.080608 577.544373,50.001495 
	C577.129272,49.989082 576.714111,49.976669 576.127502,49.355148 
	C575.756714,48.869423 575.385925,48.383694 575.095825,47.199738 
	C576.073364,44.552906 577.050842,41.906071 578.862305,39.078686 
	C581.664551,38.858276 585.169250,40.352776 586.904724,35.882961 
	C586.249878,34.258377 585.595032,32.633789 584.438049,30.573399 
	C583.619873,30.287727 582.801758,30.002054 581.648621,29.357977 
	C581.099792,29.521593 580.550903,29.685207 579.314819,29.994818 
	C577.375366,30.092394 575.435852,30.189970 572.836426,29.885500 
	C571.434387,27.599920 570.032288,25.314341 568.245117,22.400921 
	C567.200806,25.244572 566.376221,27.489939 565.091431,30.988583 
	C564.216858,28.409922 563.814148,27.222654 563.465027,25.261877 
	C562.156311,24.749464 560.847656,24.237049 559.788635,22.976215 
	C559.511292,22.231018 559.234009,21.485819 558.956665,20.740622 
	C558.670105,20.826166 558.383484,20.911711 558.096924,20.997255 
	C558.358459,21.921465 558.619995,22.845673 558.126038,23.862209 
	C557.926819,23.705240 557.727539,23.548269 556.702393,23.168995 
	C554.454834,23.344187 552.207214,23.519379 549.147461,23.765196 
	C547.525146,23.572517 545.887512,23.463428 544.283508,23.170607 
	C540.361145,22.454582 538.184021,23.554190 539.049622,28.956593 
	C539.230713,29.575399 539.411804,30.194206 538.700256,30.888330 
	C537.815247,30.770220 536.930176,30.652109 536.029785,29.702515 
	C535.668884,28.463108 535.308044,27.223703 535.142212,25.205593 
	C534.419006,24.773800 533.695862,24.342007 532.625793,23.458910 
	C531.310364,23.348993 529.994934,23.239079 528.301147,23.047705 
	C528.301147,23.047705 528.028931,22.772463 527.886841,22.131483 
	C526.180908,22.124096 524.475037,22.116709 522.164917,21.902679 
	C520.526611,22.335104 518.787048,22.545424 517.267273,23.237984 
	C510.277679,26.423174 504.715027,24.957237 500.321838,19.162777 
	C499.325867,17.849127 496.958282,17.000828 495.187164,16.939075 
	C479.093506,16.377949 462.992371,16.027945 446.892853,15.640286 
	C440.703339,15.491251 434.443237,15.921563 428.346466,15.106629 
	C424.308624,14.566908 420.975647,13.958244 417.958771,17.429970 
	C417.071320,18.451206 415.172150,18.593241 413.123535,19.370977 
	C415.397278,14.605511 413.382385,13.946804 409.956940,13.856720 
	C402.866302,13.670247 395.776215,12.836688 388.699036,12.969365 
	C383.461060,13.067562 378.243866,14.272052 372.996796,15.644287 
	C372.996643,16.084965 372.996490,16.525644 372.168884,17.160994 
	C358.188019,17.236963 344.207001,17.293255 330.226349,17.396563 
	C322.324921,17.454948 314.422516,17.699215 306.524353,17.589312 
	C305.136475,17.570000 303.767242,16.212622 302.389404,15.473193 
	C302.546783,14.777725 302.704132,14.082256 302.861511,13.386788 
	C299.201508,14.636168 295.541534,15.885546 291.317474,17.327486 
	C291.634827,15.494250 291.831696,14.357064 292.261627,11.873480 
	C288.719391,13.535283 286.143890,14.807034 283.514343,15.954986 
	C281.742737,16.728386 279.939697,17.732347 278.073883,17.938808 
	C264.673950,19.421562 251.253937,20.722475 237.842682,22.104298 
	C237.368103,22.153196 236.800568,22.323977 236.475403,22.641676 
	C233.045212,25.993046 229.430801,25.576021 226.789490,23.610535 
	C222.538300,26.553753 218.831146,29.125122 215.098541,31.658995 
	C215.042496,31.697044 214.670776,31.270063 214.047943,30.478855 
	C213.128616,29.995022 212.209290,29.511187 211.289978,29.027353 
	C211.155746,29.352692 211.021530,29.678028 210.887299,30.003365 
	C212.043808,30.375244 213.200317,30.747122 214.933899,31.780634 
	C214.130554,33.966198 213.380753,35.224262 210.304276,34.331509 
	C206.086990,33.107704 203.087372,36.012177 202.904877,39.986385 
	C202.567139,40.152615 202.229401,40.318848 201.891663,40.485073 
	C202.263306,40.653828 202.634949,40.822578 203.109070,41.264439 
M736.716309,108.114731 
	C736.977966,106.482948 737.239563,104.851166 737.501221,103.219383 
	C736.819763,102.834488 736.138367,102.449593 735.456970,102.064697 
	C734.106567,103.894272 732.739502,105.711845 731.410217,107.556602 
	C729.921448,109.622826 730.455505,110.854042 732.924377,111.810188 
	C733.758789,115.332291 733.758789,115.332291 738.693481,112.208000 
	C737.945374,111.074150 737.197327,109.940300 736.716309,108.114731 
M716.405945,181.068817 
	C716.475098,180.076828 716.544312,179.084854 716.613464,178.092865 
	C715.436462,178.603302 714.259399,179.113739 713.082397,179.624191 
	C713.991882,180.256180 714.901428,180.888168 716.405945,181.068817 
M620.823730,53.102924 
	C619.989929,52.439320 619.156128,51.775715 618.322327,51.112106 
	C617.997314,51.891869 617.672302,52.671635 617.347290,53.451401 
	C618.400146,53.555946 619.453003,53.660492 620.823730,53.102924 
M713.322144,127.096214 
	C714.985901,127.241112 716.649658,127.386009 718.313416,127.530907 
	C718.247681,126.875580 718.182007,126.220261 718.116333,125.564934 
	C716.532410,125.852943 714.948486,126.140961 713.322144,127.096214 
M713.988892,187.702469 
	C713.347229,188.250885 712.705566,188.799286 712.063904,189.347672 
	C712.579956,189.846573 713.096069,190.345474 713.612061,190.844360 
	C713.905640,189.968567 714.199219,189.092758 713.988892,187.702469 
M195.176895,35.488708 
	C195.153671,36.265564 195.130447,37.042416 195.107224,37.819267 
	C195.987625,37.583282 196.868027,37.347298 197.748428,37.111324 
	C197.108353,36.464840 196.468277,35.818356 195.176895,35.488708 
M66.482712,191.666077 
	C66.858452,192.669785 67.234192,193.673492 67.609932,194.677200 
	C68.127968,194.370667 68.646004,194.064117 69.164040,193.757584 
	C68.446396,192.918777 67.728752,192.079987 66.482712,191.666077 
M447.256226,211.451141 
	C447.032440,212.473236 446.808685,213.495346 446.584900,214.517441 
	C447.175323,214.502808 447.765747,214.488174 448.356140,214.473557 
	C448.171844,213.594879 447.987549,212.716202 447.256226,211.451141 
M72.166931,191.088699 
	C71.505142,191.687241 70.843353,192.285797 70.181572,192.884338 
	C70.540039,193.169250 70.898499,193.454163 71.256966,193.739059 
	C71.745491,192.859909 72.234024,191.980743 72.166931,191.088699 
M564.853577,20.503407 
	C564.458740,20.155029 564.063843,19.806654 563.669006,19.458273 
	C563.528564,20.005426 563.388123,20.552578 563.247620,21.099726 
	C563.741760,21.101555 564.235901,21.103384 564.853577,20.503407 
M574.381775,26.324871 
	C574.927856,26.464838 575.473877,26.604807 576.019958,26.744772 
	C576.084534,26.482752 576.149048,26.220732 576.213562,25.958706 
	C575.587158,25.889105 574.960815,25.819504 574.381775,26.324871 
M712.371399,131.524887 
	C712.158081,131.470139 711.944763,131.415375 711.731445,131.360596 
	C711.868469,131.495010 712.005493,131.629410 712.371399,131.524887 
M724.410339,126.482780 
	C724.410339,126.482780 724.521423,126.416641 724.410339,126.482780 
M698.518677,205.411819 
	C698.518677,205.411819 698.585327,205.522491 698.518677,205.411819 
M686.516785,204.411926 
	C686.516785,204.411926 686.581970,204.521698 686.516785,204.411926 
M709.590027,134.517624 
	C709.590027,134.517624 709.474426,134.586777 709.590027,134.517624 
z"/>
<path fill="#425A66" opacity="1.000000" stroke="none" 
	d="
M572.997803,212.921188 
	C570.005554,212.982056 567.009766,212.973755 564.021973,213.122986 
	C560.966370,213.275635 557.214905,211.585098 555.701599,216.229843 
	C555.534485,216.742676 553.909851,217.029526 552.972412,217.004181 
	C543.034851,216.735413 533.099548,216.382111 523.163635,216.052094 
	C523.136658,215.595703 523.109680,215.139297 523.082764,214.682907 
	C526.163940,212.848068 529.245117,211.013214 532.628296,208.998520 
	C521.107910,204.791565 509.757172,202.561600 497.128052,203.986847 
	C496.039520,204.280106 495.703613,204.500473 495.367706,204.720840 
	C495.367706,204.720840 495.133087,204.687149 494.669189,204.816284 
	C492.210571,205.208389 490.215851,205.471390 488.221130,205.734390 
	C488.221130,205.734390 488.072784,205.961990 487.986938,205.606918 
	C486.936188,205.180511 485.971252,205.109192 485.006317,205.037872 
	C483.546417,205.644547 482.086487,206.251236 479.898407,207.007477 
	C476.972504,206.707901 474.764038,206.304855 472.580139,205.796356 
	C470.487946,205.309219 468.178101,203.907242 466.425507,204.436340 
	C465.177216,204.813171 464.693878,207.723740 463.768860,209.720016 
	C463.197479,209.583191 462.088806,209.317688 460.980133,209.052185 
	C460.529480,208.282364 460.078827,207.512527 459.857849,206.092957 
	C460.688477,204.245392 461.289429,203.047562 461.890411,201.849731 
	C461.427216,201.515900 460.964020,201.182068 460.500824,200.848236 
	C459.116638,202.608459 457.732452,204.368683 456.348267,206.128891 
	C456.348267,206.128891 456.157959,206.087708 455.745575,206.201324 
	C454.572388,206.344193 453.811615,206.373459 453.050812,206.402725 
	C452.359894,205.978455 451.564392,205.662384 450.995209,205.112183 
	C447.563416,201.794876 444.445648,201.298660 441.759399,206.711792 
	C438.829102,201.388794 435.150055,202.439545 430.934540,204.082047 
	C429.033325,204.822830 426.319580,204.482071 424.307465,203.735077 
	C419.411041,201.917343 415.518311,201.938751 412.029297,206.642151 
	C408.614197,211.245941 402.618011,210.338226 400.034882,206.070999 
	C392.039001,207.994736 384.331848,209.848999 377.943207,211.386047 
	C376.113251,209.963058 374.887207,208.201981 373.754242,208.259949 
	C366.470581,208.632660 359.112061,208.872391 351.957184,210.154770 
	C337.127319,212.812759 322.440491,215.670670 307.373352,211.570618 
	C303.288605,210.459076 298.869080,210.616394 294.632660,209.991516 
	C293.770599,209.864365 293.040894,208.839447 293.053619,208.089813 
	C298.095520,208.153748 302.333984,208.356277 306.572449,208.558807 
	C306.614044,208.039856 306.655640,207.520905 306.697235,207.001938 
	C304.061249,205.436096 301.425232,203.870255 298.946381,202.397751 
	C296.847687,203.370621 294.909088,204.269272 292.970520,205.167938 
	C288.285065,204.942184 283.309753,205.816757 280.297394,200.502319 
	C279.835785,199.687973 276.757080,199.574005 275.371765,200.201843 
	C269.363373,202.924988 263.337250,203.047394 256.851349,202.352615 
	C251.383255,201.766876 245.733765,202.874512 239.998703,204.340851 
	C241.655075,204.979431 243.311462,205.618011 245.287292,206.379745 
	C242.648117,209.099182 240.528870,211.283310 236.612457,208.588120 
	C235.304871,207.688248 232.843155,208.522858 230.912994,208.453827 
	C229.033936,208.386627 227.159958,208.177673 225.283737,208.030975 
	C225.289658,207.531876 225.295578,207.032761 225.301498,206.533661 
	C226.671982,205.958221 228.042480,205.382782 229.412964,204.807358 
	C219.654068,204.734879 209.740707,202.375549 200.719315,207.774094 
	C188.372253,206.083572 176.467865,213.830719 163.784225,209.191452 
	C160.549591,208.008331 156.151276,209.728287 152.351440,210.450287 
	C148.838226,211.117798 145.459061,212.604431 141.933777,213.067780 
	C136.686295,213.757462 131.197556,213.270279 127.287651,217.983612 
	C126.758957,218.620941 125.507339,218.803284 124.556076,218.922989 
	C114.869843,220.141800 105.176453,221.303619 95.485283,222.483170 
	C95.154816,222.523392 94.827614,222.618210 94.497246,222.627121 
	C91.487686,222.708328 87.383156,224.369766 86.490227,220.082031 
	C85.636635,215.983200 90.361320,217.152786 92.360428,215.649460 
	C95.237770,213.485718 97.762207,210.852707 100.437256,208.419952 
	C100.161087,208.062454 99.884918,207.704971 99.608749,207.347473 
	C92.364365,206.905334 85.119972,206.463196 77.154785,205.977081 
	C77.154785,201.929077 77.154785,197.899689 77.549408,193.327057 
	C81.338165,188.805161 86.106659,189.771133 90.444572,189.460251 
	C94.217667,189.189850 98.025482,189.403946 101.817955,189.403946 
	C101.806267,188.483383 101.794579,187.562836 101.782890,186.642273 
	C97.446960,186.872208 93.111763,187.262070 88.774864,187.282028 
	C85.236404,187.298325 81.695908,186.872543 78.156319,186.642776 
	C78.274925,186.370270 78.319672,186.086136 78.559227,185.459015 
	C79.373985,183.940094 79.920067,182.752548 80.466141,181.565002 
	C79.309250,181.375061 78.152351,181.185104 76.995461,180.995148 
	C74.620956,180.641129 72.246445,180.287125 69.405624,179.571899 
	C68.702103,178.949585 68.407211,178.825287 68.054642,178.837830 
	C67.601494,178.076614 67.148338,177.315399 66.768753,176.014008 
	C67.566200,175.243683 68.290085,175.013550 69.013969,174.783417 
	C69.758949,174.791840 70.503929,174.800247 72.001305,174.755249 
	C76.994934,173.745255 81.236160,172.788681 85.477394,171.832092 
	C85.382126,171.504410 85.286865,171.176727 85.191605,170.849045 
	C81.243408,170.849045 77.295212,170.849045 73.347015,170.849045 
	C73.355377,170.511429 73.363731,170.173813 73.590332,169.349548 
	C75.939835,168.201523 78.028351,167.269882 80.209633,166.924896 
	C90.394173,165.314224 100.604309,163.865448 110.805298,162.358765 
	C110.735947,161.611511 110.666603,160.864258 110.597260,160.117004 
	C101.063354,160.722260 91.529457,161.327499 81.755386,161.685822 
	C79.102898,160.194733 77.329605,160.523605 74.613564,161.873260 
	C70.950569,163.693497 66.238914,163.358154 62.009686,164.126251 
	C61.255428,164.263245 60.658539,165.266739 59.625202,165.953247 
	C58.516518,166.070145 57.771614,166.103958 57.011108,165.734192 
	C56.622421,163.873108 56.249336,162.415634 55.876247,160.958145 
	C55.876247,160.958145 55.936432,160.546432 55.922089,159.973846 
	C54.972610,158.119751 54.037476,156.838272 53.154690,155.628525 
	C54.085487,154.315216 55.625305,153.127991 55.680912,151.874908 
	C55.832951,148.448486 56.421692,144.688141 53.009354,142.163788 
	C57.242134,141.453964 61.503006,140.873276 65.691925,139.961884 
	C67.092484,139.657150 68.309219,138.507538 69.311790,137.236053 
	C64.421371,135.770538 64.421371,135.770538 59.899544,128.692123 
	C57.975609,129.828354 56.053555,130.963470 54.131500,132.098602 
	C53.223457,130.434341 52.315411,128.770065 51.966957,126.777290 
	C53.766411,126.004227 55.006275,125.559669 56.246132,125.115112 
	C57.109833,124.723595 57.973530,124.332092 59.412106,123.609039 
	C62.965958,122.919327 65.944931,122.561165 69.533005,122.129768 
	C69.831902,120.787964 70.289337,118.734421 71.085602,115.159851 
	C68.390663,117.146492 67.040291,118.263023 65.571884,119.193207 
	C63.811203,120.308533 61.916733,121.408783 61.078094,118.177635 
	C61.303677,117.938118 61.743393,117.507210 61.724571,117.486160 
	C58.454933,113.828163 60.903191,109.202827 59.648201,105.363815 
	C58.830498,102.862488 59.504818,102.086021 61.918579,101.045425 
	C63.003544,100.667511 63.481743,100.429764 64.334427,100.100166 
	C64.828926,99.330254 64.948936,98.652184 65.085312,97.637329 
	C63.938416,96.882896 62.802715,96.259926 61.604988,96.099220 
	C60.082840,95.894989 58.510414,96.065506 56.959663,96.074448 
	C56.872078,95.887489 56.784492,95.700539 56.584164,94.919113 
	C56.803383,93.616760 57.135345,92.908882 57.467308,92.201004 
	C59.569599,87.998695 63.535366,87.530350 67.548729,87.202209 
	C73.136238,86.745384 78.569679,86.438080 83.419724,82.629395 
	C85.457062,81.029495 89.180305,81.731758 92.023911,80.966682 
	C96.230202,79.834976 100.335571,78.328156 105.028732,76.531219 
	C107.127548,76.066040 108.799644,75.672020 110.211555,76.112328 
	C113.383125,77.101364 115.196968,76.102020 116.094406,73.039276 
	C118.946663,69.604362 122.724861,69.594536 126.858376,68.777718 
	C133.558792,67.453659 139.661011,70.954262 146.050034,69.379898 
	C146.506790,69.267342 147.341751,69.589783 147.465683,69.385422 
	C151.765732,62.294777 157.511536,68.990128 162.575439,67.945564 
	C168.103882,66.805176 174.097122,68.150490 179.830215,67.692322 
	C184.015884,67.357803 188.166473,66.035988 192.193817,64.726990 
	C193.007126,64.462639 193.196579,62.278988 193.797546,60.642948 
	C196.295609,62.061687 198.624283,64.123672 201.270569,64.683060 
	C204.020111,65.264275 207.076767,64.392487 209.875732,64.166084 
	C209.466568,62.021217 209.166382,60.447670 208.882370,58.161995 
	C208.592300,57.323387 208.286057,57.196899 207.979813,57.070412 
	C207.681870,56.574139 207.383926,56.077866 207.111969,55.050789 
	C207.097275,54.347244 207.056564,54.174511 207.015869,54.001781 
	C207.111618,53.260860 207.207367,52.519939 207.364594,51.143093 
	C205.824249,48.973103 204.222427,47.439041 202.620605,45.904976 
	C204.179031,45.293598 205.737442,44.682217 208.043945,43.978432 
	C213.036545,43.320282 217.281082,42.754539 221.525620,42.188793 
	C216.848557,40.409046 212.271912,39.401257 207.669724,38.528019 
	C207.175491,38.434238 206.532715,39.123276 205.958847,39.449181 
	C205.146652,39.413822 204.334457,39.378460 203.489899,39.699562 
	C203.457535,40.056026 203.493118,39.978348 203.493118,39.978348 
	C203.087372,36.012177 206.086990,33.107704 210.304276,34.331509 
	C213.380753,35.224262 214.130554,33.966198 214.645691,31.401531 
	C214.357483,31.022427 214.446396,31.060108 214.446396,31.060110 
	C214.670776,31.270063 215.042496,31.697044 215.098541,31.658995 
	C218.831146,29.125122 222.538300,26.553753 226.789490,23.610535 
	C229.430801,25.576021 233.045212,25.993046 236.475403,22.641676 
	C236.800568,22.323977 237.368103,22.153196 237.842682,22.104298 
	C251.253937,20.722475 264.673950,19.421562 278.073883,17.938808 
	C279.939697,17.732347 281.742737,16.728386 283.514343,15.954986 
	C286.143890,14.807034 288.719391,13.535283 292.261627,11.873480 
	C291.831696,14.357064 291.634827,15.494250 291.317474,17.327486 
	C295.541534,15.885546 299.201508,14.636168 302.861511,13.386788 
	C302.704132,14.082256 302.546783,14.777725 302.389404,15.473193 
	C303.767242,16.212622 305.136475,17.570000 306.524353,17.589312 
	C314.422516,17.699215 322.324921,17.454948 330.226349,17.396563 
	C344.207001,17.293255 358.188019,17.236963 373.005920,17.135895 
	C381.435364,17.517599 389.027832,17.924404 396.620270,18.331209 
	C396.647034,17.551620 396.673798,16.772034 396.700562,15.992446 
	C394.683502,15.992446 392.662323,16.076410 390.650238,15.976596 
	C384.770660,15.684928 378.894745,15.319943 373.017395,14.983695 
	C378.243866,14.272052 383.461060,13.067562 388.699036,12.969365 
	C395.776215,12.836688 402.866302,13.670247 409.956940,13.856720 
	C413.382385,13.946804 415.397278,14.605511 413.123535,19.370977 
	C415.172150,18.593241 417.071320,18.451206 417.958771,17.429970 
	C420.975647,13.958244 424.308624,14.566908 428.346466,15.106629 
	C434.443237,15.921563 440.703339,15.491251 446.892853,15.640286 
	C462.992371,16.027945 479.093506,16.377949 495.187164,16.939075 
	C496.958282,17.000828 499.325867,17.849127 500.321838,19.162777 
	C504.715027,24.957237 510.277679,26.423174 517.267273,23.237984 
	C518.787048,22.545424 520.526611,22.335104 522.738647,22.290241 
	C524.884583,22.709354 526.456726,22.740910 528.028931,22.772463 
	C528.028931,22.772463 528.301147,23.047705 528.577148,23.436211 
	C530.226318,23.853220 531.599487,23.881721 532.972656,23.910217 
	C533.695862,24.342007 534.419006,24.773800 534.709595,25.712933 
	C532.554504,27.230808 530.832092,28.241343 528.195251,29.788298 
	C531.518616,30.104000 533.781921,30.318998 536.045166,30.533997 
	C536.930176,30.652109 537.815247,30.770220 539.491821,30.930706 
	C547.827820,31.217567 555.371643,31.482998 562.917053,31.696026 
	C565.854919,31.778975 568.159973,32.222019 565.784729,36.113388 
	C563.614380,36.785713 561.760132,37.247166 559.968994,37.885677 
	C558.719604,38.331062 557.556763,39.019100 556.317566,39.596252 
	C556.279907,39.593750 556.206421,39.577770 555.987183,39.320992 
	C554.778076,38.944736 553.261047,38.367096 552.894226,38.789162 
	C551.647095,40.224190 550.806030,42.012100 549.809937,43.665260 
	C550.279846,43.800514 550.749817,43.935764 551.204468,44.448242 
	C552.795044,45.318699 554.400879,45.811932 556.060730,46.648308 
	C560.538757,53.484463 566.940063,53.505310 576.335876,51.000061 
	C577.155640,50.731148 577.660645,50.405884 578.165588,50.080612 
	C578.165588,50.080608 578.604187,50.048672 579.122803,49.979034 
	C580.750122,49.268555 581.858887,48.627716 582.967712,47.986885 
	C584.123657,46.955219 585.279541,45.923546 586.905151,45.172211 
	C587.877625,45.982944 588.380554,46.513332 588.883423,47.043716 
	C590.341675,48.320686 591.799927,49.597656 593.733398,51.206764 
	C594.805298,52.046463 595.402039,52.554020 595.966370,53.368851 
	C595.289429,54.440796 594.644897,55.205471 593.598022,55.960953 
	C592.395081,55.951836 591.594543,55.951912 590.468262,56.034492 
	C588.418823,57.976585 589.053894,58.782261 591.537964,58.845596 
	C591.716125,58.849834 592.005798,59.057453 592.057373,59.378830 
	C593.083252,59.771290 594.057495,59.842369 595.367920,59.917446 
	C596.129395,60.054333 596.554688,60.187218 597.036438,60.597008 
	C597.751038,60.843620 598.409180,60.813332 599.460205,60.741249 
	C600.901489,60.778107 601.949829,60.856762 603.183838,61.192070 
	C604.227905,61.242615 605.086304,61.036503 606.106934,60.677502 
	C606.269104,60.524612 606.563538,60.189983 606.851318,60.320389 
	C607.751160,60.349373 608.363159,60.247944 608.975159,60.146515 
	C610.665466,60.114986 612.355774,60.083458 614.576294,60.429783 
	C614.374023,61.688873 613.641479,62.570110 612.056824,64.476540 
	C616.797363,65.059845 620.737305,65.611343 624.692444,66.011848 
	C628.377258,66.384987 629.862488,64.666222 629.053467,61.024967 
	C630.373413,60.978840 631.693420,60.932713 633.328735,61.418015 
	C633.795898,63.756557 633.947754,65.563675 634.127747,67.705299 
	C635.688354,66.548058 636.856384,65.681908 638.024414,64.815758 
	C639.812866,65.228073 641.052429,65.315025 641.245911,62.724667 
	C641.475281,59.654064 643.540833,58.932632 646.226318,60.262718 
	C649.585754,61.926624 652.906494,63.668835 657.083679,65.807114 
	C657.348694,64.956978 657.931274,63.088165 658.757019,60.439312 
	C659.927490,61.566288 661.822998,62.543400 661.836853,63.546516 
	C661.910034,68.839981 665.080322,69.347458 669.741821,69.183121 
	C671.227722,70.955704 672.112427,72.424271 672.608276,73.951233 
	C672.283936,74.731499 672.128174,75.953461 672.448486,76.094536 
	C674.625854,77.053535 677.727600,77.137367 678.975281,78.725739 
	C681.482788,81.917900 683.488037,81.032768 685.508789,78.929192 
	C688.015381,76.319969 690.718933,75.637619 694.016357,76.927055 
	C694.034180,77.316872 694.052002,77.706688 693.587524,78.408936 
	C691.892700,79.032349 690.680298,79.343315 689.467896,79.654282 
	C689.544189,79.990807 689.620544,80.327332 689.696838,80.663857 
	C691.145996,80.663857 692.595215,80.663857 694.044373,80.663857 
	C699.137268,80.663857 704.230103,80.663857 708.920654,80.663857 
	C707.714417,83.421524 706.043152,85.533699 706.019287,87.664337 
	C705.974121,91.696396 709.714050,91.935188 712.567200,92.231987 
	C718.367004,92.835335 723.703857,96.198021 730.057922,94.279152 
	C732.185364,93.636688 735.283142,96.207504 738.619873,97.592903 
	C731.405640,103.195160 724.708618,106.183090 716.238098,104.532997 
	C712.637512,103.831589 708.717590,104.769363 704.646729,104.977310 
	C704.369202,113.205597 697.801270,108.235001 693.425964,110.748138 
	C696.185852,111.439789 698.082458,111.915092 699.979065,112.390404 
	C700.106079,112.864426 700.233032,113.338448 700.359985,113.812462 
	C698.021057,114.454506 695.682068,115.096542 693.343140,115.738579 
	C693.368408,116.076584 693.393677,116.414597 693.418945,116.752609 
	C703.639587,117.490852 713.860229,118.229103 724.834351,119.135208 
	C720.536804,119.694984 715.475098,119.986664 710.440125,120.527679 
	C708.397766,120.747124 705.031372,121.034019 704.659973,122.113518 
	C703.500671,125.482491 703.484009,129.244629 703.024353,132.854355 
	C703.353638,132.854721 703.682922,132.855087 704.012207,132.855453 
	C705.073120,133.365540 706.134033,133.875626 706.953247,134.917633 
	C705.530884,135.978806 704.350220,136.508041 702.682251,137.255722 
	C704.073608,138.091690 705.013733,138.656540 706.033813,139.566376 
	C706.528015,140.761551 706.942200,141.611740 707.244995,142.753754 
	C706.897522,143.619385 706.661499,144.193176 706.425415,144.766968 
	C703.896912,145.377136 701.368408,145.987305 698.174377,146.490662 
	C694.337891,147.930237 691.166870,149.476654 687.995911,151.023041 
	C687.551208,150.991806 687.106567,150.960571 685.999817,150.897980 
	C683.515198,150.676163 681.692627,150.485718 679.870056,150.295288 
	C679.427063,150.347290 678.984131,150.399292 677.903320,150.645691 
	C675.706848,152.421280 674.148193,154.002472 672.589478,155.583679 
	C672.589478,155.583679 672.867432,155.651230 672.476685,155.793640 
	C671.688171,156.608139 671.290466,157.280228 670.892822,157.952301 
	C670.450745,158.305283 670.008728,158.658279 668.896667,159.017059 
	C667.152710,159.006805 666.078796,158.990784 664.845886,158.608521 
	C661.436279,158.472366 658.160522,158.534592 654.947327,159.015152 
	C653.661255,159.207504 652.336731,160.147354 651.392151,161.104660 
	C651.034241,161.467407 651.563843,163.554947 651.917664,163.620438 
	C653.270264,163.870712 654.774597,163.848145 656.114929,163.506378 
	C659.128174,162.738022 662.077332,161.718185 665.241455,161.089920 
	C666.246338,162.640228 667.062317,163.901337 667.878296,165.162415 
	C667.878296,165.162415 667.950989,165.051910 667.999146,165.313553 
	C668.361572,165.643982 668.675964,165.712769 668.990295,165.781540 
	C669.738281,165.896423 670.486267,166.011322 671.880371,166.249924 
	C673.361694,166.441437 674.196899,166.509247 675.032166,166.577042 
	C676.095215,166.692261 677.158203,166.807480 679.036926,166.971191 
	C681.570496,166.989243 683.288330,166.958801 685.006226,166.928375 
	C691.032959,166.953278 697.059631,166.978195 703.969971,167.021530 
	C706.563599,166.975311 708.273682,166.910675 709.983765,166.846039 
	C712.213379,167.076416 714.442993,167.306793 716.672607,167.537170 
	C711.203064,172.744263 704.423950,169.396072 697.868591,171.609894 
	C696.936890,173.568726 696.683533,175.147583 696.528809,176.111923 
	C691.447937,175.714447 686.164917,175.135483 680.867432,174.932785 
	C675.448120,174.725418 670.014771,174.886871 664.587524,174.886871 
	C665.870483,176.767258 667.891663,177.107819 668.437622,178.191574 
	C671.528259,184.326172 672.592102,184.937103 679.037842,183.032654 
	C679.884399,183.795792 680.453796,184.405655 681.150269,185.324402 
	C680.181946,188.916580 679.086670,192.199890 677.604004,195.605377 
	C676.142700,195.841843 675.068787,195.956131 673.742065,195.979034 
	C673.315979,195.841995 673.142639,195.796371 672.800842,195.564850 
	C672.091187,195.568069 671.549988,195.757187 670.685730,196.040237 
	C669.916016,196.174408 669.469360,196.214630 668.697510,196.139679 
	C667.916626,195.966217 667.460999,195.907944 666.915833,195.493591 
	C665.242126,194.456436 663.575073,193.919342 662.090027,193.065659 
	C658.480652,190.990753 656.212891,191.999542 654.529663,195.906326 
	C649.047485,195.924088 644.029053,195.884689 638.945923,195.529037 
	C637.740601,193.864853 636.600098,192.516922 635.367981,191.060776 
	C633.676270,195.732742 628.696106,199.343719 633.191040,204.497452 
	C629.376953,206.914536 626.272522,209.017136 622.489136,206.238480 
	C624.025940,202.796143 625.431152,199.648590 627.163635,195.768066 
	C626.874695,195.428833 625.879456,194.260330 624.093567,192.163422 
	C622.934814,194.138565 622.104187,195.554520 621.039917,197.368622 
	C620.473572,195.331558 620.154297,194.183044 619.835022,193.034515 
	C619.241699,193.145309 618.648376,193.256104 618.055054,193.366898 
	C618.456116,195.669647 618.857117,197.972397 619.258118,200.275162 
	C619.024780,200.116486 618.791382,199.957809 618.558044,199.799149 
	C617.370483,202.501297 616.182922,205.203445 614.995361,207.905594 
	C613.928955,207.976242 612.862488,208.046906 611.211914,207.793945 
	C609.056763,205.229202 607.485718,202.988052 605.914673,200.746902 
	C605.433716,200.832291 604.952759,200.917679 604.471802,201.003067 
	C604.405945,206.636932 600.768921,206.820526 596.808289,207.106873 
	C594.166931,207.297836 591.591736,208.404022 588.986938,209.100586 
	C588.986938,209.100586 588.795776,209.289413 588.261719,209.194000 
	C583.197815,210.012039 578.768799,211.969620 573.968262,210.479202 
	C573.903687,210.459152 573.332520,212.071014 572.997803,212.921188 
M114.284042,150.329300 
	C109.189445,149.868896 104.098671,149.185364 98.997681,149.097977 
	C97.646957,149.074814 96.264771,150.886795 94.897034,151.856140 
	C95.167259,152.258240 95.437485,152.660355 95.707710,153.062454 
	C92.377396,153.988922 89.047081,154.915390 85.716766,155.841858 
	C96.313339,157.911453 105.693130,153.952560 115.320793,151.347122 
	C115.180710,151.039017 115.040634,150.730896 114.284042,150.329300 
M58.589825,160.518051 
	C58.589825,160.518051 58.477745,160.585693 58.589825,160.518051 
M670.482849,72.582237 
	C670.482849,72.582237 670.421753,72.477150 670.482849,72.582237 
z"/>
<path fill="#4E6169" opacity="1.000000" stroke="none" 
	d="
M654.993408,195.849167 
	C656.212891,191.999542 658.480652,190.990753 662.090027,193.065659 
	C663.575073,193.919342 665.242126,194.456436 666.551758,195.581619 
	C665.923401,196.414124 665.569641,196.802536 665.215820,197.190948 
	C666.482178,197.415878 667.748596,197.640823 669.402832,197.962830 
	C672.502197,198.717255 675.213806,199.374603 677.979004,200.267273 
	C678.032715,200.502609 677.993225,200.983765 677.993225,200.983765 
	C666.692078,201.650269 655.390869,202.316788 644.089722,202.983307 
	C644.057190,203.464462 644.024597,203.945633 643.992065,204.426788 
	C645.820740,205.140091 647.649353,205.853378 649.477966,206.566681 
	C641.938904,209.068268 634.507263,210.812073 626.697388,209.524185 
	C623.094360,208.930054 619.458069,208.537704 615.416138,207.979721 
	C616.182922,205.203445 617.370483,202.501297 618.558044,199.799149 
	C618.791382,199.957809 619.024780,200.116486 619.258118,200.275162 
	C618.857117,197.972397 618.456116,195.669647 618.055054,193.366898 
	C618.648376,193.256104 619.241699,193.145309 619.835022,193.034515 
	C620.154297,194.183044 620.473572,195.331558 621.039917,197.368622 
	C622.104187,195.554520 622.934814,194.138565 624.093567,192.163422 
	C625.879456,194.260330 626.874695,195.428833 627.163635,195.768066 
	C625.431152,199.648590 624.025940,202.796143 622.489136,206.238480 
	C626.272522,209.017136 629.376953,206.914536 633.191040,204.497452 
	C628.696106,199.343719 633.676270,195.732742 635.367981,191.060776 
	C636.600098,192.516922 637.740601,193.864853 638.540955,195.607971 
	C637.152527,196.272369 636.104370,196.541595 635.056152,196.810822 
	C635.140015,197.102966 635.223816,197.395126 635.307678,197.687271 
	C642.630493,197.687271 649.953308,197.687271 658.803406,197.687271 
	C656.609497,196.628830 655.801453,196.238998 654.993408,195.849167 
z"/>
<path fill="#E6EFF0" opacity="1.000000" stroke="none" 
	d="
M566.127747,35.978115 
	C568.159973,32.222019 565.854919,31.778975 562.917053,31.696026 
	C555.371643,31.482998 547.827820,31.217567 539.938110,30.893047 
	C539.411804,30.194206 539.230713,29.575399 539.476013,28.600937 
	C547.738770,27.508656 555.575073,26.772030 563.411499,26.035397 
	C563.814148,27.222654 564.216858,28.409922 565.091431,30.988583 
	C566.376221,27.489939 567.200806,25.244572 568.245117,22.400921 
	C570.032288,25.314341 571.434387,27.599920 572.907654,30.399818 
	C572.838623,33.540474 572.466736,36.197392 572.805176,38.760529 
	C572.856567,39.149841 576.204895,39.103874 578.028320,39.259239 
	C577.050842,41.906071 576.073364,44.552906 574.678833,47.594109 
	C567.754822,46.555592 567.594666,40.824371 566.127747,35.978115 
z"/>
<path fill="#EDF4F5" opacity="1.000000" stroke="none" 
	d="
M678.760681,182.879349 
	C672.592102,184.937103 671.528259,184.326172 668.437622,178.191574 
	C667.891663,177.107819 665.870483,176.767258 664.587524,174.886871 
	C670.014771,174.886871 675.448120,174.725418 680.867432,174.932785 
	C686.164917,175.135483 691.447937,175.714447 696.528809,176.111923 
	C696.683533,175.147583 696.936890,173.568726 697.547974,171.889801 
	C699.636414,173.876358 701.367126,175.962997 703.097839,178.049622 
	C702.866211,178.537247 702.634583,179.024872 702.402893,179.512497 
	C698.311340,179.782654 694.219727,180.052811 689.739014,180.500900 
	C687.989746,180.250092 686.430115,179.179138 685.311096,179.526688 
	C683.003174,180.243484 680.930298,181.717102 678.760681,182.879349 
z"/>
<path fill="#516469" opacity="1.000000" stroke="none" 
	d="
M677.991333,195.483185 
	C679.086670,192.199890 680.181946,188.916580 681.477905,185.321045 
	C682.116150,185.008118 682.553650,185.007416 683.036804,185.332535 
	C684.057678,185.776382 685.032898,185.894394 686.323486,186.010468 
	C687.269348,185.996658 687.899780,185.984787 688.503662,186.376831 
	C689.906311,192.489441 693.133606,194.379059 700.787659,193.080887 
	C698.170959,191.681427 696.326843,190.829239 694.654663,189.718338 
	C694.159363,189.389313 694.148193,188.331436 693.915161,187.607544 
	C694.368286,187.419434 694.821350,187.231323 695.949097,187.056534 
	C697.942505,187.835876 699.261292,188.601913 700.580078,189.367950 
	C700.580078,189.367935 700.667114,189.365417 700.786377,189.697754 
	C702.965637,190.703629 705.025757,191.377182 707.085815,192.050735 
	C708.043701,192.776901 709.001587,193.503067 709.525879,194.685303 
	C701.728699,195.450287 694.365173,195.759201 686.555115,195.992111 
	C683.402893,195.771790 680.697083,195.627487 677.991333,195.483185 
z"/>
<path fill="#EDF5F6" opacity="1.000000" stroke="none" 
	d="
M81.995552,161.932755 
	C91.529457,161.327499 101.063354,160.722260 110.597260,160.117004 
	C110.666603,160.864258 110.735947,161.611511 110.805298,162.358765 
	C100.604309,163.865448 90.394173,165.314224 80.209633,166.924896 
	C78.028351,167.269882 75.939835,168.201523 73.505676,169.109161 
	C71.904030,168.367981 70.605278,167.380554 69.428848,165.879028 
	C73.699295,164.220871 77.847420,163.076813 81.995552,161.932755 
z"/>
<path fill="#EDF4F5" opacity="1.000000" stroke="none" 
	d="
M687.001587,196.068130 
	C694.365173,195.759201 701.728699,195.450287 709.494995,195.055557 
	C712.116638,196.940643 714.335510,198.911530 717.231384,201.483749 
	C712.553162,201.018173 708.393311,203.258591 705.419373,199.129044 
	C705.258423,198.905579 704.245544,198.925735 704.010010,199.182144 
	C701.134949,202.312119 697.673523,201.059677 694.165527,200.934479 
	C688.967590,200.748978 683.742249,201.330902 678.260864,201.284943 
	C677.993225,200.983765 678.032715,200.502609 678.349243,200.251678 
	C681.722168,199.501999 684.778687,199.003281 688.044922,198.470322 
	C687.508850,197.236099 687.255249,196.652115 687.001587,196.068130 
z"/>
<path fill="#46595F" opacity="1.000000" stroke="none" 
	d="
M565.784729,36.113388 
	C567.594666,40.824371 567.754822,46.555592 574.638489,47.943222 
	C575.385925,48.383694 575.756714,48.869423 576.112427,49.895733 
	C576.071899,50.605453 576.046448,50.774586 576.021057,50.943714 
	C566.940063,53.505310 560.538757,53.484463 556.443237,46.587715 
	C558.673096,46.366673 560.589783,46.747795 562.466064,46.603672 
	C562.986938,46.563667 563.388184,44.965729 564.185547,44.013271 
	C564.488342,43.323158 564.480469,42.164665 564.406921,42.160480 
	C562.759216,42.066765 561.104248,42.100018 559.621582,41.761086 
	C558.646667,40.808182 557.500977,40.203476 556.355225,39.598759 
	C557.556763,39.019100 558.719604,38.331062 559.968994,37.885677 
	C561.760132,37.247166 563.614380,36.785713 565.784729,36.113388 
z"/>
<path fill="#556466" opacity="1.000000" stroke="none" 
	d="
M52.590050,142.123306 
	C56.421692,144.688141 55.832951,148.448486 55.680912,151.874908 
	C55.625305,153.127991 54.085487,154.315216 53.154690,155.628525 
	C54.037476,156.838272 54.972610,158.119751 55.923744,159.765808 
	C52.628117,159.415466 49.316486,158.700562 46.004860,157.985657 
	C45.983639,157.487793 45.962414,156.989929 45.941193,156.492065 
	C47.822048,155.410355 49.702900,154.328659 52.081707,152.960571 
	C49.783665,150.864563 50.745438,146.163879 45.058498,147.023666 
	C42.544582,147.041901 40.773045,147.018555 39.001511,146.995193 
	C40.020428,145.907272 40.865723,144.192139 42.091843,143.852722 
	C45.364044,142.946899 48.799923,142.632385 52.590050,142.123306 
z"/>
<path fill="#F0F6F6" opacity="1.000000" stroke="none" 
	d="
M704.057129,132.499207 
	C703.682922,132.855087 703.353638,132.854721 703.024353,132.854355 
	C703.484009,129.244629 703.500671,125.482491 704.659973,122.113518 
	C705.031372,121.034019 708.397766,120.747124 710.440125,120.527679 
	C715.475098,119.986664 720.536804,119.694984 725.289734,119.068619 
	C728.044434,117.884262 731.097107,116.934349 734.605713,115.842575 
	C734.605713,118.257164 734.605713,119.779259 734.605713,121.190437 
	C732.913635,121.093102 731.399414,120.774132 729.953186,120.966446 
	C725.678955,121.534798 721.446289,122.765961 717.170715,122.902626 
	C707.698547,123.205399 707.520325,123.117485 704.057129,132.499207 
z"/>
<path fill="#E6EFF1" opacity="1.000000" stroke="none" 
	d="
M694.026855,76.522141 
	C690.718933,75.637619 688.015381,76.319969 685.508789,78.929192 
	C683.488037,81.032768 681.482788,81.917900 678.975281,78.725739 
	C677.727600,77.137367 674.625854,77.053535 672.448486,76.094536 
	C672.128174,75.953461 672.283936,74.731499 672.985596,74.007492 
	C677.161804,72.480545 680.541199,70.150398 683.797058,74.502991 
	C684.138123,74.959045 686.172424,74.186111 687.409546,73.927643 
	C692.250488,72.916283 697.086731,71.882530 701.924683,70.857117 
	C702.170410,71.852005 702.416077,72.846893 702.476868,73.092850 
	C699.731445,74.076698 696.884460,75.096962 694.026855,76.522141 
z"/>
<path fill="#4D5E65" opacity="1.000000" stroke="none" 
	d="
M701.839722,70.485794 
	C697.086731,71.882530 692.250488,72.916283 687.409546,73.927643 
	C686.172424,74.186111 684.138123,74.959045 683.797058,74.502991 
	C680.541199,70.150398 677.161804,72.480545 673.374512,73.949097 
	C672.112427,72.424271 671.227722,70.955704 670.160706,69.212036 
	C679.072083,68.893761 688.166382,68.790543 697.259155,68.866982 
	C698.761047,68.879601 700.256409,69.678787 701.839722,70.485794 
z"/>
<path fill="#4A5E68" opacity="1.000000" stroke="none" 
	d="
M578.445312,39.168961 
	C576.204895,39.103874 572.856567,39.149841 572.805176,38.760529 
	C572.466736,36.197392 572.838623,33.540474 573.237671,30.600842 
	C575.435852,30.189970 577.375366,30.092394 579.991333,29.983816 
	C581.106445,29.887335 581.545044,29.801853 581.983582,29.716377 
	C582.801758,30.002054 583.619873,30.287727 584.667603,31.167614 
	C585.362427,33.186150 585.827698,34.610470 586.292969,36.034782 
	C585.169250,40.352776 581.664551,38.858276 578.445312,39.168961 
z"/>
<path fill="#ECF3F4" opacity="1.000000" stroke="none" 
	d="
M460.963745,209.358551 
	C462.088806,209.317688 463.197479,209.583191 463.768860,209.720016 
	C464.693878,207.723740 465.177216,204.813171 466.425507,204.436340 
	C468.178101,203.907242 470.487946,205.309219 472.580139,205.796356 
	C474.764038,206.304855 476.972504,206.707901 479.594482,207.164581 
	C480.303589,208.679123 480.588409,210.186142 480.390472,212.029572 
	C475.582916,212.238251 471.258087,212.110504 466.933289,211.982773 
	C465.686249,212.110199 464.297394,212.631027 463.234497,212.247757 
	C462.285126,211.905441 461.695648,210.564972 460.963745,209.358551 
z"/>
<path fill="#4D5F64" opacity="1.000000" stroke="none" 
	d="
M563.438232,25.648640 
	C555.575073,26.772030 547.738770,27.508656 539.453613,28.117002 
	C538.184021,23.554190 540.361145,22.454582 544.283508,23.170607 
	C545.887512,23.463428 547.525146,23.572517 549.976624,23.842960 
	C553.046570,23.744247 555.287415,23.567772 557.528198,23.391298 
	C557.727539,23.548269 557.926819,23.705240 558.609131,23.805302 
	C559.092224,23.748392 559.538940,23.724627 559.538940,23.724630 
	C560.847656,24.237049 562.156311,24.749464 563.438232,25.648640 
z"/>
<path fill="#EDF5F6" opacity="1.000000" stroke="none" 
	d="
M78.092491,187.016739 
	C81.695908,186.872543 85.236404,187.298325 88.774864,187.282028 
	C93.111763,187.262070 97.446960,186.872208 101.782890,186.642273 
	C101.794579,187.562836 101.806267,188.483383 101.817955,189.403946 
	C98.025482,189.403946 94.217667,189.189850 90.444572,189.460251 
	C86.106659,189.771133 81.338165,188.805161 77.634964,192.948349 
	C76.860672,192.440735 75.879272,191.607452 76.029160,191.127289 
	C76.442604,189.802780 77.329201,188.625946 78.092491,187.016739 
z"/>
<path fill="#4E6169" opacity="1.000000" stroke="none" 
	d="
M589.455200,209.143967 
	C591.591736,208.404022 594.166931,207.297836 596.808289,207.106873 
	C600.768921,206.820526 604.405945,206.636932 604.471802,201.003067 
	C604.952759,200.917679 605.433716,200.832291 605.914673,200.746902 
	C607.485718,202.988052 609.056763,205.229202 610.813477,207.733978 
	C603.973938,208.394196 596.948730,208.790771 589.455200,209.143967 
z"/>
<path fill="#56676D" opacity="1.000000" stroke="none" 
	d="
M55.582321,161.108673 
	C56.249336,162.415634 56.622421,163.873108 56.757263,166.005554 
	C56.270363,168.064056 56.021709,169.447632 55.773056,170.831192 
	C55.773056,170.831192 55.889153,170.911682 55.593994,170.901764 
	C54.827156,171.149689 54.355480,171.407501 53.883804,171.665314 
	C51.818016,171.759476 49.752224,171.853638 47.686432,171.947800 
	C47.376934,171.489517 47.067432,171.031250 46.757935,170.572968 
	C49.601421,167.468384 52.444912,164.363785 55.582321,161.108673 
z"/>
<path fill="#F0F6F6" opacity="1.000000" stroke="none" 
	d="
M705.953857,139.221405 
	C705.013733,138.656540 704.073608,138.091690 702.682251,137.255722 
	C704.350220,136.508041 705.530884,135.978806 707.009888,135.270996 
	C710.075623,137.327454 710.075623,137.327454 713.266724,133.810852 
	C716.804688,135.538193 720.207825,137.199753 723.610962,138.861313 
	C723.584961,139.245392 723.558960,139.629471 723.532898,140.013550 
	C721.951843,140.013550 720.370728,140.013550 718.107422,139.762680 
	C713.601379,139.415024 709.777649,139.318222 705.953857,139.221405 
z"/>
<path fill="#DEEBED" opacity="1.000000" stroke="none" 
	d="
M292.982849,205.499878 
	C294.909088,204.269272 296.847687,203.370621 298.946381,202.397751 
	C301.425232,203.870255 304.061249,205.436096 306.697235,207.001938 
	C306.655640,207.520905 306.614044,208.039856 306.572449,208.558807 
	C302.333984,208.356277 298.095520,208.153748 293.417480,207.887482 
	C292.983643,207.159790 292.989410,206.495819 292.982849,205.499878 
z"/>
<path fill="#ECF3F4" opacity="1.000000" stroke="none" 
	d="
M115.761375,73.023804 
	C115.196968,76.102020 113.383125,77.101364 110.211555,76.112328 
	C108.799644,75.672020 107.127548,76.066040 105.212349,76.201035 
	C104.017113,75.971771 103.183075,75.622849 102.140701,75.186775 
	C103.593941,73.835953 104.748245,72.762993 105.951279,71.345016 
	C106.000000,71.000000 105.996994,71.003891 105.996994,71.003891 
	C108.308311,71.206474 110.886681,75.120003 112.347412,70.787003 
	C113.516891,71.630196 114.472618,72.319267 115.761375,73.023804 
z"/>
<path fill="#E6EFF1" opacity="1.000000" stroke="none" 
	d="
M60.874683,118.346817 
	C61.916733,121.408783 63.811203,120.308533 65.571884,119.193207 
	C67.040291,118.263023 68.390663,117.146492 71.085602,115.159851 
	C70.289337,118.734421 69.831902,120.787964 69.533005,122.129768 
	C65.944931,122.561165 62.965958,122.919327 59.612888,123.399178 
	C58.793980,122.430550 58.349159,121.340233 57.883656,120.199219 
	C58.806610,119.641922 59.738941,119.078957 60.874683,118.346817 
z"/>
<path fill="#556466" opacity="1.000000" stroke="none" 
	d="
M594.000366,55.970146 
	C594.644897,55.205471 595.289429,54.440796 596.350159,53.257027 
	C598.969971,52.279018 601.173645,51.720104 603.377258,51.161186 
	C603.738098,51.118706 604.098938,51.076233 605.056885,51.033966 
	C606.106750,50.988232 606.559509,50.942295 607.012329,50.896351 
	C607.531006,51.393692 608.049744,51.891033 608.177979,52.812786 
	C606.772522,53.884140 605.757507,54.531086 604.338257,55.207161 
	C600.978088,55.730850 598.022095,56.225410 594.922363,56.551884 
	C594.487854,56.305058 594.228394,56.167171 594.000366,55.970146 
z"/>
<path fill="#E3EAED" opacity="1.000000" stroke="none" 
	d="
M206.044647,39.751572 
	C206.532715,39.123276 207.175491,38.434238 207.669724,38.528019 
	C212.271912,39.401257 216.848557,40.409046 221.525620,42.188793 
	C217.281082,42.754539 213.036545,43.320282 208.380829,43.854107 
	C207.356583,42.566116 206.743515,41.310043 206.044647,39.751572 
z"/>
<path fill="#EDF4F5" opacity="1.000000" stroke="none" 
	d="
M693.915894,187.208389 
	C694.148193,188.331436 694.159363,189.389313 694.654663,189.718338 
	C696.326843,190.829239 698.170959,191.681427 700.787659,193.080887 
	C693.133606,194.379059 689.906311,192.489441 688.710754,186.120148 
	C689.570801,184.861816 690.197083,184.264053 690.823364,183.666306 
	C691.854431,184.713943 692.885498,185.761581 693.915894,187.208389 
z"/>
<path fill="#ECF3F4" opacity="1.000000" stroke="none" 
	d="
M628.693848,61.083992 
	C629.862488,64.666222 628.377258,66.384987 624.692444,66.011848 
	C620.737305,65.611343 616.797363,65.059845 612.056824,64.476540 
	C613.641479,62.570110 614.374023,61.688873 614.999390,60.428993 
	C618.365234,61.811993 621.838257,63.573631 625.460571,65.411034 
	C626.629333,63.675171 627.481750,62.409092 628.693848,61.083992 
z"/>
<path fill="#46595F" opacity="1.000000" stroke="none" 
	d="
M690.891846,183.367142 
	C690.197083,184.264053 689.570801,184.861816 688.737427,185.716248 
	C687.899780,185.984787 687.269348,185.996658 686.317383,185.672012 
	C685.685364,184.683350 685.374878,184.031204 685.064453,183.379028 
	C684.373352,183.921570 683.682251,184.464127 682.991211,185.006683 
	C682.553650,185.007416 682.116150,185.008118 681.350891,185.012177 
	C680.453796,184.405655 679.884399,183.795792 679.037842,183.032654 
	C680.930298,181.717102 683.003174,180.243484 685.311096,179.526688 
	C686.430115,179.179138 687.989746,180.250092 689.669189,180.854065 
	C690.312439,181.708862 690.636353,182.388428 690.891846,183.367142 
z"/>
<path fill="#ECF3F4" opacity="1.000000" stroke="none" 
	d="
M488.157837,206.104431 
	C490.215851,205.471390 492.210571,205.208389 494.592682,204.906784 
	C493.843475,207.977661 492.706879,211.087143 491.334167,214.842606 
	C488.960175,212.951004 487.484802,211.775406 486.206543,210.756866 
	C486.849670,209.298111 487.472137,207.886292 488.157837,206.104431 
z"/>
<path fill="#DFF0F5" opacity="1.000000" stroke="none" 
	d="
M373.007080,15.313990 
	C378.894745,15.319943 384.770660,15.684928 390.650238,15.976596 
	C392.662323,16.076410 394.683502,15.992446 396.700562,15.992446 
	C396.673798,16.772034 396.647034,17.551620 396.620270,18.331209 
	C389.027832,17.924404 381.435364,17.517599 373.419617,17.038559 
	C372.996490,16.525644 372.996643,16.084965 373.007080,15.313990 
z"/>
<path fill="#56676D" opacity="1.000000" stroke="none" 
	d="
M81.755386,161.685822 
	C77.847420,163.076813 73.699295,164.220871 69.254631,165.575256 
	C66.931122,165.868484 64.904152,165.951355 62.113037,166.035965 
	C60.895596,165.981857 60.442291,165.926010 59.988983,165.870148 
	C60.658539,165.266739 61.255428,164.263245 62.009686,164.126251 
	C66.238914,163.358154 70.950569,163.693497 74.613564,161.873260 
	C77.329605,160.523605 79.102898,160.194733 81.755386,161.685822 
z"/>
<path fill="#505C61" opacity="1.000000" stroke="none" 
	d="
M466.770325,212.319275 
	C471.258087,212.110504 475.582916,212.238251 480.359894,212.415939 
	C481.347656,212.642624 481.883270,212.819351 482.592834,213.339447 
	C481.173126,214.166489 479.579468,214.650192 477.985779,215.133881 
	C476.929169,215.158691 475.872559,215.183502 474.029999,215.193939 
	C472.160004,215.134171 471.075989,215.088791 469.991943,215.043396 
	C468.863770,214.247513 467.735565,213.451645 466.770325,212.319275 
z"/>
<path fill="#EDF5F6" opacity="1.000000" stroke="none" 
	d="
M73.041054,171.029236 
	C77.295212,170.849045 81.243408,170.849045 85.191605,170.849045 
	C85.286865,171.176727 85.382126,171.504410 85.477394,171.832092 
	C81.236160,172.788681 76.994934,173.745255 72.358841,174.644302 
	C72.221016,173.460983 72.478058,172.335190 73.041054,171.029236 
z"/>
<path fill="#56676D" opacity="1.000000" stroke="none" 
	d="
M732.984558,111.205765 
	C730.455505,110.854042 729.921448,109.622826 731.410217,107.556602 
	C732.739502,105.711845 734.106567,103.894272 735.456970,102.064697 
	C736.138367,102.449593 736.819763,102.834488 737.501221,103.219383 
	C737.239563,104.851166 736.977966,106.482948 736.346741,108.646912 
	C734.979614,109.854645 733.982117,110.530205 732.984558,111.205765 
z"/>
<path fill="#EDF4F5" opacity="1.000000" stroke="none" 
	d="
M706.825317,191.838348 
	C705.025757,191.377182 702.965637,190.703629 700.770752,189.738388 
	C705.078247,188.701035 702.645142,185.898224 702.646606,183.400208 
	C706.657837,184.810699 706.981140,188.020599 706.825317,191.838348 
z"/>
<path fill="#69757B" opacity="1.000000" stroke="none" 
	d="
M706.033813,139.566376 
	C709.777649,139.318222 713.601379,139.415024 717.765625,139.758057 
	C717.477539,140.742264 716.849060,141.480209 715.635864,142.474396 
	C712.486267,142.641068 709.921326,142.551498 707.356384,142.461945 
	C706.942200,141.611740 706.528015,140.761551 706.033813,139.566376 
z"/>
<path fill="#4E6169" opacity="1.000000" stroke="none" 
	d="
M573.453796,212.981171 
	C573.332520,212.071014 573.903687,210.459152 573.968262,210.479202 
	C578.768799,211.969620 583.197815,210.012039 588.135498,209.148163 
	C586.401001,212.688705 583.047424,213.074875 579.391235,212.882172 
	C577.571960,212.786301 575.737427,212.979004 573.453796,212.981171 
z"/>
<path fill="#EDF4F5" opacity="1.000000" stroke="none" 
	d="
M707.244995,142.753754 
	C709.921326,142.551498 712.486267,142.641068 715.436523,142.696457 
	C715.921631,143.671097 716.257080,145.511688 716.085022,145.560440 
	C714.308716,146.063644 712.441895,146.536407 710.618103,146.476456 
	C709.487488,146.439301 708.387451,145.471146 706.849609,144.843933 
	C706.661499,144.193176 706.897522,143.619385 707.244995,142.753754 
z"/>
<path fill="#EDF4F5" opacity="1.000000" stroke="none" 
	d="
M687.999878,151.358185 
	C691.166870,149.476654 694.337891,147.930237 697.782593,146.548645 
	C699.190918,150.980621 694.597473,150.980667 692.940857,153.160263 
	C692.573914,153.643127 689.715210,152.232224 687.999878,151.358185 
z"/>
<path fill="#E9F1F2" opacity="1.000000" stroke="none" 
	d="
M63.959942,100.192009 
	C63.481743,100.429764 63.003544,100.667511 62.251617,100.872063 
	C60.073124,99.888588 58.168362,98.938309 55.988968,97.851013 
	C55.952961,97.914162 56.322456,97.266167 56.825809,96.346313 
	C58.510414,96.065506 60.082840,95.894989 61.604988,96.099220 
	C62.802715,96.259926 63.938416,96.882896 64.815201,97.823448 
	C64.339142,98.961571 64.149544,99.576790 63.959942,100.192009 
z"/>
<path fill="#E9F1F2" opacity="1.000000" stroke="none" 
	d="
M604.742493,55.178032 
	C605.757507,54.531086 606.772522,53.884140 608.086731,53.180519 
	C608.584290,55.188385 608.782654,57.252930 608.978088,59.731995 
	C608.363159,60.247944 607.751160,60.349373 606.449341,60.082344 
	C605.420471,58.201939 605.081482,56.689983 604.742493,55.178032 
z"/>
<path fill="#E6EFF0" opacity="1.000000" stroke="none" 
	d="
M536.037476,30.118256 
	C533.781921,30.318998 531.518616,30.104000 528.195251,29.788298 
	C530.832092,28.241343 532.554504,27.230808 534.612061,26.102283 
	C535.308044,27.223703 535.668884,28.463108 536.037476,30.118256 
z"/>
<path fill="#EDF5F6" opacity="1.000000" stroke="none" 
	d="
M59.625198,165.953247 
	C60.442291,165.926010 60.895596,165.981857 61.684418,166.110718 
	C60.189541,167.765411 58.359150,169.347092 56.150909,170.879974 
	C56.021709,169.447632 56.270363,168.064056 56.772865,166.409134 
	C57.771614,166.103958 58.516518,166.070145 59.625198,165.953247 
z"/>
<path fill="#E3EAED" opacity="1.000000" stroke="none" 
	d="
M638.005981,64.449692 
	C636.856384,65.681908 635.688354,66.548058 634.127747,67.705299 
	C633.947754,65.563675 633.795898,63.756557 633.583496,61.588181 
	C635.011169,62.179153 636.499390,63.131393 638.005981,64.449692 
z"/>
<path fill="#F0F6F6" opacity="1.000000" stroke="none" 
	d="
M732.954468,111.507980 
	C733.982117,110.530205 734.979614,109.854645 736.213196,108.992767 
	C737.197327,109.940300 737.945374,111.074150 738.693481,112.208000 
	C733.758789,115.332291 733.758789,115.332291 732.954468,111.507980 
z"/>
<path fill="#ECF3F4" opacity="1.000000" stroke="none" 
	d="
M38.992290,147.378265 
	C40.773045,147.018555 42.544582,147.041901 44.665222,147.086685 
	C45.213188,151.335434 42.199135,151.039856 38.983070,151.231064 
	C38.983070,149.975830 38.983070,148.868591 38.992290,147.378265 
z"/>
<path fill="#EDF4F5" opacity="1.000000" stroke="none" 
	d="
M680.000366,150.652618 
	C681.692627,150.485718 683.515198,150.676163 685.672729,150.981125 
	C685.552185,152.269119 685.096619,153.442581 684.562561,154.818176 
	C682.881104,153.373352 681.505920,152.191650 680.000366,150.652618 
z"/>
<path fill="#ECF3F4" opacity="1.000000" stroke="none" 
	d="
M456.682312,206.104340 
	C457.732452,204.368683 459.116638,202.608459 460.500824,200.848236 
	C460.964020,201.182068 461.427216,201.515900 461.890411,201.849731 
	C461.289429,203.047562 460.688477,204.245392 459.891296,205.732147 
	C458.802155,206.040634 457.909241,206.060211 456.682312,206.104340 
z"/>
<path fill="#EDF4F5" opacity="1.000000" stroke="none" 
	d="
M665.004883,158.974762 
	C666.078796,158.990784 667.152710,159.006805 668.620239,159.108109 
	C668.648315,160.966904 668.282776,162.740417 667.897827,164.838181 
	C667.062317,163.901337 666.246338,162.640228 665.235107,160.785645 
	C665.028137,159.786346 665.016541,159.380554 665.004883,158.974762 
z"/>
<path fill="#ECF3F4" opacity="1.000000" stroke="none" 
	d="
M202.316177,45.998032 
	C204.222427,47.439041 205.824249,48.973103 207.285156,50.775497 
	C205.544525,49.277779 200.263443,51.326694 202.316177,45.998032 
z"/>
<path fill="#EDF4F5" opacity="1.000000" stroke="none" 
	d="
M716.108398,181.294495 
	C714.901428,180.888168 713.991882,180.256180 713.082397,179.624191 
	C714.259399,179.113739 715.436462,178.603302 716.613464,178.092865 
	C716.544312,179.084854 716.475098,180.076828 716.108398,181.294495 
z"/>
<path fill="#EDF5F6" opacity="1.000000" stroke="none" 
	d="
M77.003632,181.378693 
	C78.152351,181.185104 79.309250,181.375061 80.466141,181.565002 
	C79.920067,182.752548 79.373985,183.940094 78.507797,185.247650 
	C77.795731,184.165863 77.403770,182.964050 77.003632,181.378693 
z"/>
<path fill="#EDF4F5" opacity="1.000000" stroke="none" 
	d="
M672.972046,155.702286 
	C674.148193,154.002472 675.706848,152.421280 677.621826,150.832993 
	C676.436890,152.490891 674.895752,154.155899 672.972046,155.702286 
z"/>
<path fill="#ECF3F4" opacity="1.000000" stroke="none" 
	d="
M478.066833,215.478210 
	C479.579468,214.650192 481.173126,214.166489 482.877563,213.343674 
	C482.920441,214.015106 482.943054,215.883713 482.770538,215.901901 
	C481.249329,216.062302 479.693481,215.893738 478.066833,215.478210 
z"/>
<path fill="#E9F1F2" opacity="1.000000" stroke="none" 
	d="
M602.898438,51.108810 
	C601.173645,51.720104 598.969971,52.279018 596.382568,52.949757 
	C595.402039,52.554020 594.805298,52.046463 594.056396,51.276505 
	C596.742737,51.028214 599.581116,51.042324 602.898438,51.108810 
z"/>
<path fill="#EDF4F5" opacity="1.000000" stroke="none" 
	d="
M700.673462,189.000381 
	C699.261292,188.601913 697.942505,187.835876 696.305176,186.961578 
	C696.316162,185.990967 696.645752,185.128632 696.975403,184.266296 
	C697.680237,184.758224 698.526733,185.132889 699.055054,185.770981 
	C699.755615,186.617264 700.207825,187.669235 700.673462,189.000381 
z"/>
<path fill="#E3EAED" opacity="1.000000" stroke="none" 
	d="
M620.664795,53.433983 
	C619.453003,53.660492 618.400146,53.555946 617.347290,53.451401 
	C617.672302,52.671635 617.997314,51.891869 618.322327,51.112110 
	C619.156128,51.775715 619.989929,52.439320 620.664795,53.433983 
z"/>
<path fill="#F0F6F6" opacity="1.000000" stroke="none" 
	d="
M713.343384,126.762589 
	C714.948486,126.140961 716.532410,125.852943 718.116333,125.564934 
	C718.182007,126.220261 718.247681,126.875580 718.313416,127.530907 
	C716.649658,127.386009 714.985901,127.241112 713.343384,126.762589 
z"/>
<path fill="#EDF4F5" opacity="1.000000" stroke="none" 
	d="
M714.240845,187.959717 
	C714.199219,189.092758 713.905640,189.968567 713.612061,190.844360 
	C713.096069,190.345474 712.579956,189.846573 712.063904,189.347687 
	C712.705566,188.799286 713.347229,188.250885 714.240845,187.959717 
z"/>
<path fill="#ECF3F4" opacity="1.000000" stroke="none" 
	d="
M470.037811,215.389694 
	C471.075989,215.088791 472.160004,215.134171 473.641174,215.273926 
	C473.494690,216.203857 472.951080,217.039413 472.407471,217.874969 
	C471.632874,217.161987 470.858276,216.448990 470.037811,215.389694 
z"/>
<path fill="#E3EAED" opacity="1.000000" stroke="none" 
	d="
M195.502548,35.330292 
	C196.468277,35.818356 197.108353,36.464840 197.748428,37.111320 
	C196.868027,37.347298 195.987625,37.583282 195.107224,37.819267 
	C195.130447,37.042416 195.153671,36.265564 195.502548,35.330292 
z"/>
<path fill="#EDF5F6" opacity="1.000000" stroke="none" 
	d="
M66.746910,191.453629 
	C67.728752,192.079987 68.446396,192.918777 69.164040,193.757584 
	C68.646004,194.064117 68.127968,194.370667 67.609932,194.677200 
	C67.234192,193.673492 66.858452,192.669785 66.746910,191.453629 
z"/>
<path fill="#ECF3F4" opacity="1.000000" stroke="none" 
	d="
M447.529724,211.644333 
	C447.987549,212.716202 448.171844,213.594879 448.356140,214.473557 
	C447.765747,214.488174 447.175323,214.502808 446.584900,214.517441 
	C446.808685,213.495346 447.032440,212.473236 447.529724,211.644333 
z"/>
<path fill="#EDF4F5" opacity="1.000000" stroke="none" 
	d="
M684.938477,166.590088 
	C683.288330,166.958801 681.570496,166.989243 679.435669,166.910828 
	C680.969421,166.618576 682.920044,166.435196 684.938477,166.590088 
z"/>
<path fill="#E6EFF1" opacity="1.000000" stroke="none" 
	d="
M694.032593,80.333038 
	C692.595215,80.663857 691.145996,80.663857 689.696838,80.663857 
	C689.620544,80.327332 689.544189,79.990807 689.467896,79.654282 
	C690.680298,79.343315 691.892700,79.032349 693.481689,78.704826 
	C693.912415,79.126259 693.966614,79.564232 694.032593,80.333038 
z"/>
<path fill="#E6EFF0" opacity="1.000000" stroke="none" 
	d="
M586.598816,35.958878 
	C585.827698,34.610470 585.362427,33.186150 584.918701,31.385517 
	C585.595032,32.633789 586.249878,34.258377 586.598816,35.958878 
z"/>
<path fill="#E6EFF0" opacity="1.000000" stroke="none" 
	d="
M557.115295,23.280146 
	C555.287415,23.567772 553.046570,23.744247 550.382690,23.807648 
	C552.207214,23.519379 554.454834,23.344187 557.115295,23.280146 
z"/>
<path fill="#E9F1F2" opacity="1.000000" stroke="none" 
	d="
M57.088066,92.152161 
	C57.135345,92.908882 56.803383,93.616760 56.363739,94.701591 
	C55.564205,94.571190 54.872353,94.063843 54.180496,93.556488 
	C55.023273,93.072105 55.866047,92.587715 57.088066,92.152161 
z"/>
<path fill="#EDF5F6" opacity="1.000000" stroke="none" 
	d="
M68.959763,174.485596 
	C68.290085,175.013550 67.566200,175.243683 66.572800,175.744125 
	C66.117386,175.425385 65.931496,174.836334 65.745605,174.247284 
	C66.798920,174.227448 67.852234,174.207611 68.959763,174.485596 
z"/>
<path fill="#E6EFF0" opacity="1.000000" stroke="none" 
	d="
M532.799194,23.684566 
	C531.599487,23.881721 530.226318,23.853220 528.766357,23.476940 
	C529.994934,23.239079 531.310364,23.348993 532.799194,23.684566 
z"/>
<path fill="#E6EFF0" opacity="1.000000" stroke="none" 
	d="
M582.603821,47.979507 
	C581.858887,48.627716 580.750122,49.268555 579.308777,49.861835 
	C580.064087,49.200230 581.152039,48.586185 582.603821,47.979507 
z"/>
<path fill="#EDF5F6" opacity="1.000000" stroke="none" 
	d="
M72.444740,191.095139 
	C72.234024,191.980743 71.745491,192.859909 71.256966,193.739059 
	C70.898499,193.454163 70.540039,193.169250 70.181572,192.884338 
	C70.843353,192.285797 71.505142,191.687241 72.444740,191.095139 
z"/>
<path fill="#ECF3F4" opacity="1.000000" stroke="none" 
	d="
M485.049286,205.352875 
	C485.971252,205.109192 486.936188,205.180511 488.046326,205.484772 
	C487.158447,205.701096 486.125366,205.684479 485.049286,205.352875 
z"/>
<path fill="#E6EFF0" opacity="1.000000" stroke="none" 
	d="
M527.957886,22.451973 
	C526.456726,22.740910 524.884583,22.709354 523.040771,22.393560 
	C524.475037,22.116709 526.180908,22.124096 527.957886,22.451973 
z"/>
<path fill="#E9F1F2" opacity="1.000000" stroke="none" 
	d="
M214.357147,31.070713 
	C213.200317,30.747122 212.043808,30.375244 210.887299,30.003365 
	C211.021530,29.678028 211.155746,29.352692 211.289978,29.027353 
	C212.209290,29.511187 213.128616,29.995022 214.247162,30.769482 
	C214.446396,31.060108 214.357483,31.022427 214.357147,31.070713 
z"/>
<path fill="#EDF4F5" opacity="1.000000" stroke="none" 
	d="
M709.720581,166.602936 
	C708.273682,166.910675 706.563599,166.975311 704.434448,166.950073 
	C705.829468,166.693405 707.643433,166.526611 709.720581,166.602936 
z"/>
<path fill="#EDF4F5" opacity="1.000000" stroke="none" 
	d="
M674.955200,166.283783 
	C674.196899,166.509247 673.361694,166.441437 672.258362,166.202637 
	C672.952942,166.017944 673.915527,166.004242 674.955200,166.283783 
z"/>
<path fill="#E6EFF1" opacity="1.000000" stroke="none" 
	d="
M55.889084,125.071472 
	C55.006275,125.559669 53.766411,126.004227 52.198044,126.372589 
	C53.090374,125.873543 54.311207,125.450691 55.889084,125.071472 
z"/>
<path fill="#E6EFF0" opacity="1.000000" stroke="none" 
	d="
M564.791809,20.804310 
	C564.235901,21.103384 563.741760,21.101555 563.247620,21.099728 
	C563.388123,20.552578 563.528564,20.005426 563.669006,19.458275 
	C564.063843,19.806654 564.458740,20.155029 564.791809,20.804310 
z"/>
<path fill="#E6EFF0" opacity="1.000000" stroke="none" 
	d="
M574.358093,26.037388 
	C574.960815,25.819504 575.587158,25.889105 576.213562,25.958710 
	C576.149048,26.220732 576.084534,26.482752 576.019958,26.744774 
	C575.473877,26.604807 574.927856,26.464838 574.358093,26.037388 
z"/>
<path fill="#E6EFF0" opacity="1.000000" stroke="none" 
	d="
M589.133179,46.869682 
	C588.380554,46.513332 587.877625,45.982944 587.256042,45.198151 
	C587.885864,45.527714 588.634338,46.111683 589.133179,46.869682 
z"/>
<path fill="#ECF3F4" opacity="1.000000" stroke="none" 
	d="
M453.202362,206.640350 
	C453.811615,206.373459 454.572388,206.344193 455.714661,206.293640 
	C455.182068,206.474213 454.267975,206.676086 453.202362,206.640350 
z"/>
<path fill="#E6EFF0" opacity="1.000000" stroke="none" 
	d="
M559.663818,23.350422 
	C559.538940,23.724627 559.092224,23.748392 558.986877,23.759136 
	C558.619995,22.845673 558.358459,21.921465 558.096924,20.997255 
	C558.383484,20.911711 558.670105,20.826166 558.956665,20.740622 
	C559.234009,21.485819 559.511292,22.231018 559.663818,23.350422 
z"/>
<path fill="#EDF4F5" opacity="1.000000" stroke="none" 
	d="
M671.251953,157.925934 
	C671.290466,157.280228 671.688171,156.608139 672.333923,155.785004 
	C672.258301,156.389145 671.934692,157.144348 671.251953,157.925934 
z"/>
<path fill="#E9F1F2" opacity="1.000000" stroke="none" 
	d="
M606.964111,50.611923 
	C606.559509,50.942295 606.106750,50.988232 605.319702,50.957336 
	C605.310791,50.392895 605.636047,49.905285 605.961365,49.417671 
	C606.279602,49.720940 606.597778,50.024220 606.964111,50.611923 
z"/>
<path fill="#EDF5F6" opacity="1.000000" stroke="none" 
	d="
M54.036926,171.945282 
	C54.355480,171.407501 54.827156,171.149689 55.564774,170.837463 
	C55.283825,171.263794 54.736938,171.744507 54.036926,171.945282 
z"/>
<path fill="#EDF5F6" opacity="1.000000" stroke="none" 
	d="
M67.960754,179.101044 
	C68.407211,178.825287 68.702103,178.949585 69.033432,179.438385 
	C68.699570,179.974274 68.271591,180.282471 67.843613,180.590652 
	C67.851364,180.181854 67.859116,179.773071 67.960754,179.101044 
z"/>
<path fill="#E6EFF0" opacity="1.000000" stroke="none" 
	d="
M581.816101,29.537174 
	C581.545044,29.801853 581.106445,29.887335 580.334961,29.910820 
	C580.550903,29.685207 581.099792,29.521593 581.816101,29.537174 
z"/>
<path fill="#F0F6F6" opacity="1.000000" stroke="none" 
	d="
M712.256958,131.644348 
	C712.005493,131.629410 711.868469,131.495010 711.731445,131.360596 
	C711.944763,131.415375 712.158081,131.470139 712.256958,131.644348 
z"/>
<path fill="#E3EAED" opacity="1.000000" stroke="none" 
	d="
M203.485596,40.016975 
	C203.397690,40.134682 203.281693,40.291443 203.082855,40.724106 
	C203.000000,41.000000 203.006592,40.991329 203.006592,40.991329 
	C202.634949,40.822578 202.263306,40.653828 201.891663,40.485077 
	C202.229401,40.318848 202.567139,40.152615 203.199005,39.982368 
	C203.493118,39.978348 203.457535,40.056026 203.485596,40.016975 
z"/>
<path fill="#E6EFF0" opacity="1.000000" stroke="none" 
	d="
M576.335876,51.000061 
	C576.046448,50.774586 576.071899,50.605453 576.198242,50.200287 
	C576.714111,49.976669 577.129272,49.989082 577.854980,50.041058 
	C577.660645,50.405884 577.155640,50.731148 576.335876,51.000061 
z"/>
<path fill="#ECF3F4" opacity="1.000000" stroke="none" 
	d="
M206.765549,54.014751 
	C207.056564,54.174511 207.097275,54.347244 207.029785,54.763191 
	C206.509140,54.821266 206.096710,54.636135 205.684265,54.451000 
	C205.961243,54.309906 206.238235,54.168816 206.765549,54.014751 
z"/>
<path fill="#ECF3F4" opacity="1.000000" stroke="none" 
	d="
M208.075104,57.266792 
	C208.286057,57.196899 208.592300,57.323387 208.873444,57.723793 
	C208.569427,57.886662 208.343445,57.708481 208.075104,57.266792 
z"/>
<path fill="#F0F6F6" opacity="1.000000" stroke="none" 
	d="
M724.465881,126.449707 
	C724.521423,126.416641 724.410339,126.482780 724.465881,126.449707 
z"/>
<path fill="#EDF4F5" opacity="1.000000" stroke="none" 
	d="
M668.851990,165.590210 
	C668.675964,165.712769 668.361572,165.643982 667.941650,165.346298 
	C668.171448,165.077698 668.463989,165.171524 668.851990,165.590210 
z"/>
<path fill="#EDF4F5" opacity="1.000000" stroke="none" 
	d="
M698.552002,205.467163 
	C698.585327,205.522491 698.518677,205.411819 698.552002,205.467163 
z"/>
<path fill="#EDF4F5" opacity="1.000000" stroke="none" 
	d="
M686.549377,204.466812 
	C686.581970,204.521698 686.516785,204.411926 686.549377,204.466812 
z"/>
<path fill="#ECF3F4" opacity="1.000000" stroke="none" 
	d="
M495.675720,204.749588 
	C495.703613,204.500473 496.039520,204.280106 496.684906,204.094696 
	C496.657501,204.345901 496.320587,204.562119 495.675720,204.749588 
z"/>
<path fill="#ECF3F4" opacity="1.000000" stroke="none" 
	d="
M106.001945,70.998489 
	C105.882195,70.856903 105.760498,70.716835 105.638802,70.576767 
	C105.723343,70.626701 105.807892,70.676628 105.944717,70.865227 
	C105.996994,71.003891 106.000000,71.000000 106.001945,70.998489 
z"/>
<path fill="#F0F6F6" opacity="1.000000" stroke="none" 
	d="
M709.532227,134.552200 
	C709.474426,134.586777 709.590027,134.517624 709.532227,134.552200 
z"/>
<path fill="#E3EAED" opacity="1.000000" stroke="none" 
	d="
M202.995667,41.003323 
	C203.112045,41.143021 203.232773,41.279396 203.353516,41.415771 
	C203.272034,41.365326 203.190552,41.314884 203.057831,41.127884 
	C203.006592,40.991329 203.000000,41.000000 202.995667,41.003323 
z"/>
<path fill="#E7F1F4" opacity="1.000000" stroke="none" 
	d="
M114.592300,150.376038 
	C115.040634,150.730896 115.180710,151.039017 115.320786,151.347122 
	C105.693130,153.952560 96.313339,157.911453 85.716766,155.841858 
	C89.047081,154.915390 92.377396,153.988922 95.707710,153.062454 
	C95.437485,152.660355 95.167259,152.258240 94.897034,151.856140 
	C96.264771,150.886795 97.646957,149.074814 98.997681,149.097977 
	C104.098671,149.185364 109.189445,149.868896 114.592300,150.376038 
z"/>
<path fill="#D6E5E8" opacity="1.000000" stroke="none" 
	d="
M563.844299,44.082542 
	C563.388184,44.965729 562.986938,46.563667 562.466064,46.603672 
	C560.589783,46.747795 558.673096,46.366673 556.389160,46.244568 
	C554.400879,45.811932 552.795044,45.318699 551.489197,44.313324 
	C553.261536,42.393375 554.734009,40.985573 556.206421,39.577774 
	C556.206421,39.577770 556.279907,39.593750 556.317566,39.596260 
	C557.500977,40.203476 558.646667,40.808182 559.618408,42.032612 
	C559.724182,42.853302 560.003845,43.054264 560.355042,43.704418 
	C560.987915,44.220474 561.549316,44.287338 562.404663,44.350582 
	C563.080505,44.258820 563.462402,44.170677 563.844299,44.082542 
M559.059875,44.369884 
	C559.281128,44.435490 559.502441,44.501099 559.723694,44.566700 
	C559.646790,44.359413 559.569885,44.152130 559.059875,44.369884 
z"/>
<path fill="#FDFEFE" opacity="1.000000" stroke="none" 
	d="
M686.555115,195.992111 
	C687.255249,196.652115 687.508850,197.236099 688.044922,198.470322 
	C684.778687,199.003281 681.722168,199.501999 678.295532,200.016327 
	C675.213806,199.374603 672.502197,198.717255 669.402466,197.694336 
	C669.017090,196.970779 669.019958,196.612808 669.022827,196.254852 
	C669.469360,196.214630 669.916016,196.174408 670.925903,196.125381 
	C671.653381,196.160004 671.817627,196.203445 672.158386,196.430450 
	C672.888184,196.432800 673.441528,196.251617 673.994873,196.070435 
	C675.068787,195.956131 676.142700,195.841843 677.604004,195.605362 
	C680.697083,195.627487 683.402893,195.771790 686.555115,195.992111 
z"/>
<path fill="#E1EFF1" opacity="1.000000" stroke="none" 
	d="
M664.845886,158.608505 
	C665.016541,159.380554 665.028137,159.786346 665.046143,160.496429 
	C662.077332,161.718185 659.128174,162.738022 656.114929,163.506378 
	C654.774597,163.848145 653.270264,163.870712 651.917664,163.620438 
	C651.563843,163.554947 651.034241,161.467407 651.392151,161.104660 
	C652.336731,160.147354 653.661255,159.207504 654.947327,159.015152 
	C658.160522,158.534592 661.436279,158.472366 664.845886,158.608505 
z"/>
<path fill="#D9EBF5" opacity="1.000000" stroke="none" 
	d="
M654.529663,195.906326 
	C655.801453,196.238998 656.609497,196.628830 658.803406,197.687271 
	C649.953308,197.687271 642.630493,197.687271 635.307678,197.687271 
	C635.223816,197.395126 635.140015,197.102966 635.056152,196.810822 
	C636.104370,196.541595 637.152527,196.272369 638.605713,195.924225 
	C644.029053,195.884689 649.047485,195.924088 654.529663,195.906326 
z"/>
<path fill="#FDFEFE" opacity="1.000000" stroke="none" 
	d="
M604.338257,55.207161 
	C605.081482,56.689983 605.420471,58.201939 606.161499,59.951935 
	C606.563538,60.189983 606.269104,60.524612 605.741211,60.598938 
	C604.474915,60.760651 603.736511,60.848034 602.998169,60.935417 
	C601.949829,60.856762 600.901489,60.778107 599.240112,60.570145 
	C598.078064,60.400593 597.529053,60.360352 596.979980,60.320107 
	C596.554688,60.187218 596.129395,60.054333 595.329224,59.757088 
	C594.954346,59.592731 594.869873,59.273762 594.910889,58.849102 
	C594.989990,57.856285 595.028015,57.288128 595.066101,56.719971 
	C598.022095,56.225410 600.978088,55.730850 604.338257,55.207161 
z"/>
<path fill="#46595F" opacity="1.000000" stroke="none" 
	d="
M555.987183,39.320992 
	C554.734009,40.985573 553.261536,42.393375 551.504395,43.936096 
	C550.749817,43.935764 550.279846,43.800514 549.809937,43.665260 
	C550.806030,42.012100 551.647095,40.224190 552.894226,38.789162 
	C553.261047,38.367096 554.778076,38.944736 555.987183,39.320992 
z"/>
<path fill="#E9F1F2" opacity="1.000000" stroke="none" 
	d="
M594.922363,56.551888 
	C595.028015,57.288128 594.989990,57.856285 594.550537,58.847198 
	C593.434692,59.199123 592.720215,59.128288 592.005798,59.057453 
	C592.005798,59.057453 591.716125,58.849834 591.379028,58.504051 
	C590.959229,57.422844 590.876587,56.687420 590.793945,55.951996 
	C591.594543,55.951912 592.395081,55.951836 593.598022,55.960953 
	C594.228394,56.167171 594.487854,56.305058 594.922363,56.551888 
z"/>
<path fill="#EDF4F5" opacity="1.000000" stroke="none" 
	d="
M668.697571,196.139664 
	C669.019958,196.612808 669.017090,196.970779 669.014587,197.597260 
	C667.748596,197.640823 666.482178,197.415878 665.215820,197.190948 
	C665.569641,196.802536 665.923401,196.414124 666.641235,195.937683 
	C667.460999,195.907944 667.916626,195.966217 668.697571,196.139664 
z"/>
<path fill="#556466" opacity="1.000000" stroke="none" 
	d="
M592.057373,59.378830 
	C592.720215,59.128288 593.434692,59.199123 594.509521,59.271858 
	C594.869873,59.273762 594.954346,59.592731 594.993042,59.753090 
	C594.057495,59.842369 593.083252,59.771290 592.057373,59.378830 
z"/>
<path fill="#556466" opacity="1.000000" stroke="none" 
	d="
M590.468262,56.034492 
	C590.876587,56.687420 590.959229,57.422844 591.200867,58.499817 
	C589.053894,58.782261 588.418823,57.976585 590.468262,56.034492 
z"/>
<path fill="#556466" opacity="1.000000" stroke="none" 
	d="
M597.036438,60.597008 
	C597.529053,60.360352 598.078064,60.400593 598.847229,60.611938 
	C598.409180,60.813332 597.751038,60.843620 597.036438,60.597008 
z"/>
<path fill="#556466" opacity="1.000000" stroke="none" 
	d="
M603.183838,61.192070 
	C603.736511,60.848034 604.474915,60.760651 605.578979,60.751831 
	C605.086304,61.036503 604.227905,61.242615 603.183838,61.192070 
z"/>
<path fill="#FDFEFE" opacity="1.000000" stroke="none" 
	d="
M64.334427,100.100166 
	C64.149544,99.576790 64.339142,98.961571 64.798843,98.160233 
	C64.948936,98.652184 64.828926,99.330254 64.334427,100.100166 
z"/>
<path fill="#EDF4F5" opacity="1.000000" stroke="none" 
	d="
M673.742065,195.979034 
	C673.441528,196.251617 672.888184,196.432800 672.404480,196.304810 
	C672.639221,195.914017 672.804260,195.832382 672.969360,195.750748 
	C673.142639,195.796371 673.315979,195.841995 673.742065,195.979034 
z"/>
<path fill="#516469" opacity="1.000000" stroke="none" 
	d="
M672.800842,195.564850 
	C672.804260,195.832382 672.639221,195.914017 672.228027,196.121277 
	C671.817627,196.203445 671.653381,196.160004 671.249023,196.031433 
	C671.549988,195.757187 672.091187,195.568069 672.800842,195.564850 
z"/>
<path fill="#56676D" opacity="1.000000" stroke="none" 
	d="
M58.533783,160.551880 
	C58.477745,160.585693 58.589825,160.518051 58.533783,160.551880 
z"/>
<path fill="#4D5E65" opacity="1.000000" stroke="none" 
	d="
M670.452271,72.529694 
	C670.421753,72.477150 670.482849,72.582237 670.452271,72.529694 
z"/>
<path fill="#425A66" opacity="1.000000" stroke="none" 
	d="
M683.036804,185.332520 
	C683.682251,184.464127 684.373352,183.921570 685.064453,183.379028 
	C685.374878,184.031204 685.685364,184.683350 686.002014,185.673950 
	C685.032898,185.894394 684.057678,185.776382 683.036804,185.332520 
z"/>
<path fill="#425A66" opacity="1.000000" stroke="none" 
	d="
M564.185547,44.013264 
	C563.462402,44.170677 563.080505,44.258820 562.199341,44.026012 
	C561.227966,43.555122 560.755737,43.405182 560.283569,43.255234 
	C560.003845,43.054264 559.724182,42.853302 559.447571,42.380806 
	C561.104248,42.100018 562.759216,42.066765 564.406921,42.160480 
	C564.480469,42.164665 564.488342,43.323158 564.185547,44.013264 
z"/>
<path fill="#46595F" opacity="1.000000" stroke="none" 
	d="
M559.276428,44.157364 
	C559.569885,44.152130 559.646790,44.359413 559.723694,44.566704 
	C559.502441,44.501099 559.281128,44.435490 559.276428,44.157364 
z"/>
<path fill="#46595F" opacity="1.000000" stroke="none" 
	d="
M560.355042,43.704426 
	C560.755737,43.405182 561.227966,43.555122 561.905396,44.029636 
	C561.549316,44.287338 560.987915,44.220474 560.355042,43.704426 
z"/>
</svg>